<?xml version="1.0" encoding="UTF-8"?>
<svg version="1.1" xmlns="http://www.w3.org/2000/svg" width="200" height="128">
<path d="M0 0 C3.96 0 7.92 0 12 0 C12 1.32 12 2.64 12 4 C13.32 4 14.64 4 16 4 C16 6.64 16 9.28 16 12 C17.32 12 18.64 12 20 12 C20 10.68 20 9.36 20 8 C21.32 8 22.64 8 24 8 C24 6.68 24 5.36 24 4 C27.96 4 31.92 4 36 4 C36 9.28 36 14.56 36 20 C34.68 20 33.36 20 32 20 C32 21.32 32 22.64 32 24 C30.68 24 29.36 24 28 24 C28 26.64 28 29.28 28 32 C29.32 32 30.64 32 32 32 C32 30.68 32 29.36 32 28 C33.32 28 34.64 28 36 28 C36 26.68 36 25.36 36 24 C37.32 24 38.64 24 40 24 C40 22.68 40 21.36 40 20 C43.96 20 47.92 20 52 20 C52 21.32 52 22.64 52 24 C53.32 24 54.64 24 56 24 C56 25.32 56 26.64 56 28 C54.68 28 53.36 28 52 28 C52 29.32 52 30.64 52 32 C50.68 32 49.36 32 48 32 C48 33.32 48 34.64 48 36 C46.68 36 45.36 36 44 36 C44 37.32 44 38.64 44 40 C42.68 40 41.36 40 40 40 C40 43.96 40 47.92 40 52 C38.68 52 37.36 52 36 52 C36 54.64 36 57.28 36 60 C34.68 60 33.36 60 32 60 C32 61.32 32 62.64 32 64 C30.68 64 29.36 64 28 64 C28 65.32 28 66.64 28 68 C20.08 68 12.16 68 4 68 C4 66.68 4 65.36 4 64 C2.68 64 1.36 64 0 64 C0 61.36 0 58.72 0 56 C-2.64 56 -5.28 56 -8 56 C-8 63.92 -8 71.84 -8 80 C-9.32 80 -10.64 80 -12 80 C-12 82.64 -12 85.28 -12 88 C-13.32 88 -14.64 88 -16 88 C-16 89.32 -16 90.64 -16 92 C-17.32 92 -18.64 92 -20 92 C-20 93.32 -20 94.64 -20 96 C-21.32 96 -22.64 96 -24 96 C-24 97.32 -24 98.64 -24 100 C-25.32 100 -26.64 100 -28 100 C-28 101.32 -28 102.64 -28 104 C-29.32 104 -30.64 104 -32 104 C-32 105.32 -32 106.64 -32 108 C-34.64 108 -37.28 108 -40 108 C-40 109.32 -40 110.64 -40 112 C-43.96 112 -47.92 112 -52 112 C-52 113.32 -52 114.64 -52 116 C-57.28 116 -62.56 116 -68 116 C-68 114.68 -68 113.36 -68 112 C-73.28 112 -78.56 112 -84 112 C-84 110.68 -84 109.36 -84 108 C-86.64 108 -89.28 108 -92 108 C-92 106.68 -92 105.36 -92 104 C-93.32 104 -94.64 104 -96 104 C-96 102.68 -96 101.36 -96 100 C-97.32 100 -98.64 100 -100 100 C-100 98.68 -100 97.36 -100 96 C-101.32 96 -102.64 96 -104 96 C-104 93.36 -104 90.72 -104 88 C-105.32 88 -106.64 88 -108 88 C-108 86.68 -108 85.36 -108 84 C-109.32 84 -110.64 84 -112 84 C-112 78.72 -112 73.44 -112 68 C-113.32 68 -114.64 68 -116 68 C-116 62.72 -116 57.44 -116 52 C-114.68 52 -113.36 52 -112 52 C-112 48.04 -112 44.08 -112 40 C-110.68 40 -109.36 40 -108 40 C-108 37.36 -108 34.72 -108 32 C-106.68 32 -105.36 32 -104 32 C-104 30.68 -104 29.36 -104 28 C-102.68 28 -101.36 28 -100 28 C-100 26.68 -100 25.36 -100 24 C-98.68 24 -97.36 24 -96 24 C-96 22.68 -96 21.36 -96 20 C-94.68 20 -93.36 20 -92 20 C-92 18.68 -92 17.36 -92 16 C-90.68 16 -89.36 16 -88 16 C-88 14.68 -88 13.36 -88 12 C-85.36 12 -82.72 12 -80 12 C-80 10.68 -80 9.36 -80 8 C-68.12 8 -56.24 8 -44 8 C-44 9.32 -44 10.64 -44 12 C-41.36 12 -38.72 12 -36 12 C-36 13.32 -36 14.64 -36 16 C-33.36 16 -30.72 16 -28 16 C-28 17.32 -28 18.64 -28 20 C-25.36 20 -22.72 20 -20 20 C-20 22.64 -20 25.28 -20 28 C-18.68 28 -17.36 28 -16 28 C-16 29.32 -16 30.64 -16 32 C-14.68 32 -13.36 32 -12 32 C-12 33.32 -12 34.64 -12 36 C-9.36 36 -6.72 36 -4 36 C-4 25.44 -4 14.88 -4 4 C-2.68 4 -1.36 4 0 4 C0 2.68 0 1.36 0 0 Z " fill="#F5F509" transform="translate(120,12)"/>
<path d="M0 0 C3.3 0 6.6 0 10 0 C10 2.83967231 9.59732819 5.23735711 9 8 C9.99 8 10.98 8 12 8 C12 6.68 12 5.36 12 4 C17.28 4 22.56 4 28 4 C28 7.96 28 11.92 28 16 C26.68 16 25.36 16 24 16 C24 17.32 24 18.64 24 20 C20.04 20 16.08 20 12 20 C11.67 18.68 11.34 17.36 11 16 C10.505 15.525625 10.01 15.05125 9.5 14.5625 C7.53426922 12.51486377 7.37331439 10.76252651 7 8 C6.34 8.66 5.68 9.32 5 10 C5.3185177 12.10820797 5.3185177 12.10820797 6 14 C4.68 14 3.36 14 2 14 C2.66 14.4125 3.32 14.825 4 15.25 C4.99 16.11625 4.99 16.11625 6 17 C6 21 6 21 4.5 22.75 C4.005 23.1625 3.51 23.575 3 24 C3.99 24.33 4.98 24.66 6 25 C5.33333333 27.66666667 4.66666667 30.33333333 4 33 C6.97 33 9.94 33 13 33 C13.33 33.99 13.66 34.98 14 36 C13.34 36 12.68 36 12 36 C12.254496 37.48206495 12.52911762 38.96068615 12.8125 40.4375 C12.96332031 41.26121094 13.11414063 42.08492187 13.26953125 42.93359375 C13.51058594 43.61550781 13.75164063 44.29742187 14 45 C15.485 45.495 15.485 45.495 17 46 C17 46.33 17 46.66 17 47 C19.64 47.33 22.28 47.66 25 48 C24.505 48.99 24.505 48.99 24 50 C26.97 50.66 29.94 51.32 33 52 C33 52.99 33 53.98 33 55 C34.32 55.66 35.64 56.32 37 57 C37 57.99 37 58.98 37 60 C37.99 59.67 38.98 59.34 40 59 C40.495 60.98 40.495 60.98 41 63 C47.27 63.33 53.54 63.66 60 64 C60 62.68 60 61.36 60 60 C61.32 60 62.64 60 64 60 C64 58.68 64 57.36 64 56 C65.32 56 66.64 56 68 56 C68 54.68 68 53.36 68 52 C69.32 52 70.64 52 72 52 C72 49.36 72 46.72 72 44 C72.9590625 43.8453125 72.9590625 43.8453125 73.9375 43.6875 C74.618125 43.460625 75.29875 43.23375 76 43 C76.33 42.01 76.66 41.02 77 40 C77.99 40 78.98 40 80 40 C80 37.36 80 34.72 80 32 C81.32 32 82.64 32 84 32 C84 37.28 84 42.56 84 48 C82.68 48 81.36 48 80 48 C80 50.64 80 53.28 80 56 C78.68 56 77.36 56 76 56 C76 57.32 76 58.64 76 60 C74.68 60 73.36 60 72 60 C72 61.32 72 62.64 72 64 C70.68 64 69.36 64 68 64 C68 65.32 68 66.64 68 68 C66.68 68 65.36 68 64 68 C64 69.32 64 70.64 64 72 C62.68 72 61.36 72 60 72 C60 73.32 60 74.64 60 76 C62.64 76 65.28 76 68 76 C68 78.64 68 81.28 68 84 C65.36 84 62.72 84 60 84 C60 85.32 60 86.64 60 88 C56.04 88 52.08 88 48 88 C48 89.32 48 90.64 48 92 C42.72 92 37.44 92 32 92 C32 90.68 32 89.36 32 88 C26.72 88 21.44 88 16 88 C16 86.68 16 85.36 16 84 C13.36 84 10.72 84 8 84 C8 82.68 8 81.36 8 80 C6.68 80 5.36 80 4 80 C4 78.68 4 77.36 4 76 C2.68 76 1.36 76 0 76 C0 74.68 0 73.36 0 72 C-1.32 72 -2.64 72 -4 72 C-4 69.36 -4 66.72 -4 64 C-5.32 64 -6.64 64 -8 64 C-8 62.68 -8 61.36 -8 60 C-9.32 60 -10.64 60 -12 60 C-12 54.72 -12 49.44 -12 44 C-13.32 44 -14.64 44 -16 44 C-16 38.72 -16 33.44 -16 28 C-14.68 28 -13.36 28 -12 28 C-12 24.04 -12 20.08 -12 16 C-10.68 16 -9.36 16 -8 16 C-8 13.36 -8 10.72 -8 8 C-6.68 8 -5.36 8 -4 8 C-4 6.68 -4 5.36 -4 4 C-2.68 4 -1.36 4 0 4 C0 2.68 0 1.36 0 0 Z " fill="#181702" transform="translate(20,36)"/>
<path d="M0 0 C3.96 0 7.92 0 12 0 C12 1.32 12 2.64 12 4 C13.32 4 14.64 4 16 4 C16 6.64 16 9.28 16 12 C17.32 12 18.64 12 20 12 C20 10.68 20 9.36 20 8 C21.32 8 22.64 8 24 8 C24 6.68 24 5.36 24 4 C27.96 4 31.92 4 36 4 C36 9.28 36 14.56 36 20 C34.68 20 33.36 20 32 20 C32 21.32 32 22.64 32 24 C30.68 24 29.36 24 28 24 C28 26.64 28 29.28 28 32 C29.32 32 30.64 32 32 32 C32 30.68 32 29.36 32 28 C33.32 28 34.64 28 36 28 C36 26.68 36 25.36 36 24 C37.32 24 38.64 24 40 24 C40 22.68 40 21.36 40 20 C43.96 20 47.92 20 52 20 C52 21.32 52 22.64 52 24 C53.32 24 54.64 24 56 24 C56 25.32 56 26.64 56 28 C54.68 28 53.36 28 52 28 C52 29.32 52 30.64 52 32 C50.68 32 49.36 32 48 32 C48 33.32 48 34.64 48 36 C46.68 36 45.36 36 44 36 C44 37.32 44 38.64 44 40 C42.68 40 41.36 40 40 40 C40 43.96 40 47.92 40 52 C38.68 52 37.36 52 36 52 C36 54.64 36 57.28 36 60 C34.68 60 33.36 60 32 60 C32 61.32 32 62.64 32 64 C30.68 64 29.36 64 28 64 C28 65.32 28 66.64 28 68 C20.08 68 12.16 68 4 68 C4 66.68 4 65.36 4 64 C2.68 64 1.36 64 0 64 C0 62.68 0 61.36 0 60 C1.32 60 2.64 60 4 60 C4.33 60.99 4.66 61.98 5 63 C7.95887459 63.08069658 10.9155659 63.14034665 13.875 63.1875 C14.71675781 63.21263672 15.55851562 63.23777344 16.42578125 63.26367188 C17.23144531 63.27333984 18.03710938 63.28300781 18.8671875 63.29296875 C19.61081543 63.3086792 20.35444336 63.32438965 21.12060547 63.34057617 C22.05090576 63.17199097 22.05090576 63.17199097 23 63 C23.66 62.01 24.32 61.02 25 60 C28.125 59.3125 28.125 59.3125 31 59 C31.66 56.69 32.32 54.38 33 52 C33.66 52 34.32 52 35 52 C34.938125 50.989375 34.87625 49.97875 34.8125 48.9375 C35.05656503 43.81213443 36.71821538 40.56356924 39 36 C36.69 36 34.38 36 32 36 C32 39.96 32 43.92 32 48 C30.515 48.495 30.515 48.495 29 49 C28.67 49.99 28.34 50.98 28 52 C26.68 52 25.36 52 24 52 C24 53.32 24 54.64 24 56 C17.375 57.25 17.375 57.25 14 55 C14.33 53.68 14.66 52.36 15 51 C14.01 51 13.02 51 12 51 C12 51.66 12 52.32 12 53 C9.69 52.67 7.38 52.34 5 52 C4.505 50.02 4.505 50.02 4 48 C7.96 48 11.92 48 16 48 C16 44.04 16 40.08 16 36 C12.77595022 37.66954819 12.77595022 37.66954819 12.3125 40.625 C12.209375 41.40875 12.10625 42.1925 12 43 C11.67 42.01 11.34 41.02 11 40 C9.23050905 39.89184775 7.45912513 39.81433917 5.6875 39.75 C4.70136719 39.70359375 3.71523437 39.6571875 2.69921875 39.609375 C1.80847656 39.73828125 0.91773437 39.8671875 0 40 C-0.69996094 40.98613281 -0.69996094 40.98613281 -1.4140625 41.9921875 C-3 44 -3 44 -6.28515625 44.4609375 C-8.15494141 44.41839844 -8.15494141 44.41839844 -10.0625 44.375 C-11.31160156 44.36210938 -12.56070313 44.34921875 -13.84765625 44.3359375 C-17 44 -17 44 -19 42 C-18.01 41.01 -18.01 41.01 -17 40 C-16.3574765 37.93125966 -16.3574765 37.93125966 -16 36 C-16.99 36 -17.98 36 -19 36 C-19.66 32.7 -20.32 29.4 -21 26 C-22.485 26.495 -22.485 26.495 -24 27 C-24 26.01 -24 25.02 -24 24 C-25.32 23.67 -26.64 23.34 -28 23 C-28 22.34 -28 21.68 -28 21 C-28.91523437 20.95101562 -29.83046875 20.90203125 -30.7734375 20.8515625 C-32.55621094 20.73941406 -32.55621094 20.73941406 -34.375 20.625 C-35.55835938 20.55539063 -36.74171875 20.48578125 -37.9609375 20.4140625 C-41 20 -41 20 -43 18 C-45.26665537 17.64955375 -45.26665537 17.64955375 -47.8125 17.5625 C-52.04964841 17.22814826 -54.43579949 16.37613367 -58 14 C-62.9689645 12.86659571 -67.81217827 12.88172315 -72.875 12.9375 C-73.65875 12.94201172 -74.4425 12.94652344 -75.25 12.95117188 C-77.16670014 12.96285907 -79.08336048 12.98079092 -81 13 C-81 13.99 -81 14.98 -81 16 C-83.31 16.33 -85.62 16.66 -88 17 C-88 17.99 -88 18.98 -88 20 C-89.32 20 -90.64 20 -92 20 C-92 18.68 -92 17.36 -92 16 C-90.68 16 -89.36 16 -88 16 C-88 14.68 -88 13.36 -88 12 C-85.36 12 -82.72 12 -80 12 C-80 10.68 -80 9.36 -80 8 C-68.12 8 -56.24 8 -44 8 C-44 9.32 -44 10.64 -44 12 C-41.36 12 -38.72 12 -36 12 C-36 13.32 -36 14.64 -36 16 C-33.36 16 -30.72 16 -28 16 C-28 17.32 -28 18.64 -28 20 C-25.36 20 -22.72 20 -20 20 C-20 22.64 -20 25.28 -20 28 C-18.68 28 -17.36 28 -16 28 C-16 29.32 -16 30.64 -16 32 C-14.68 32 -13.36 32 -12 32 C-12 33.32 -12 34.64 -12 36 C-9.36 36 -6.72 36 -4 36 C-4 25.44 -4 14.88 -4 4 C-2.68 4 -1.36 4 0 4 C0 2.68 0 1.36 0 0 Z " fill="#ECD54F" transform="translate(120,12)"/>
<path d="M0 0 C5.28 0 10.56 0 16 0 C16.33 0.66 16.66 1.32 17 2 C17.66 2 18.32 2 19 2 C20.31626692 5.61973402 21 8.09567131 21 12 C21.99 12 22.98 12 24 12 C23.835 12.78375 23.67 13.5675 23.5 14.375 C22.9376293 16.88208039 22.9376293 16.88208039 23 19 C27.62 19 32.24 19 37 19 C37.66 17.02 38.32 15.04 39 13 C39.495 14.485 39.495 14.485 40 16 C43.63 16 47.26 16 51 16 C51.66 14.68 52.32 13.36 53 12 C53.99 12 54.98 12 56 12 C57.125 19.5 57.125 19.5 56 24 C52.37 24.33 48.74 24.66 45 25 C45 25.99 45 26.98 45 28 C47.31 28.33 49.62 28.66 52 29 C52 28.34 52 27.68 52 27 C52.99 27 53.98 27 55 27 C54.67 28.32 54.34 29.64 54 31 C57.38018531 32.04005702 60.4780279 32.08004482 64 32 C64 30.68 64 29.36 64 28 C65.32 28 66.64 28 68 28 C68.33 26.68 68.66 25.36 69 24 C69.99 24 70.98 24 72 24 C72 20.04 72 16.08 72 12 C74.31 12 76.62 12 79 12 C78.79503906 12.56847656 78.59007812 13.13695312 78.37890625 13.72265625 C76.70907331 18.5084454 75.53623064 22.95943201 75 28 C74.34 28 73.68 28 73 28 C72.67 30.31 72.34 32.62 72 35 C70.88625 35.268125 69.7725 35.53625 68.625 35.8125 C64.78159049 36.65809019 64.78159049 36.65809019 63 40 C61.12060547 40.34057617 61.12060547 40.34057617 58.8671875 40.29296875 C58.06152344 40.28330078 57.25585938 40.27363281 56.42578125 40.26367188 C55.58402344 40.23853516 54.74226563 40.21339844 53.875 40.1875 C53.02550781 40.17396484 52.17601562 40.16042969 51.30078125 40.14648438 C49.20025163 40.11108219 47.10004707 40.05727401 45 40 C44.505 38.02 44.505 38.02 44 36 C42.68 36 41.36 36 40 36 C40 34.68 40 33.36 40 32 C37.36 32 34.72 32 32 32 C32 39.92 32 47.84 32 56 C30.68 56 29.36 56 28 56 C28 58.64 28 61.28 28 64 C26.68 64 25.36 64 24 64 C24 65.32 24 66.64 24 68 C22.68 68 21.36 68 20 68 C20 69.32 20 70.64 20 72 C18.68 72 17.36 72 16 72 C16 73.32 16 74.64 16 76 C14.68 76 13.36 76 12 76 C12 77.32 12 78.64 12 80 C10.68 80 9.36 80 8 80 C8 78.68 8 77.36 8 76 C5.36 76 2.72 76 0 76 C0 74.68 0 73.36 0 72 C1.32 72 2.64 72 4 72 C4 70.68 4 69.36 4 68 C5.32 68 6.64 68 8 68 C8 66.68 8 65.36 8 64 C9.32 64 10.64 64 12 64 C12 62.68 12 61.36 12 60 C13.32 60 14.64 60 16 60 C16 58.68 16 57.36 16 56 C17.32 56 18.64 56 20 56 C20 53.36 20 50.72 20 48 C21.32 48 22.64 48 24 48 C24 42.72 24 37.44 24 32 C22.68 32 21.36 32 20 32 C20 34.64 20 37.28 20 40 C19.01 40 18.02 40 17 40 C16.67 41.32 16.34 42.64 16 44 C14.68 44 13.36 44 12 44 C12 46.64 12 49.28 12 52 C10.68 52 9.36 52 8 52 C7.67 49.36 7.34 46.72 7 44 C7.99 43.505 7.99 43.505 9 43 C9 41.68 9 40.36 9 39 C10.98 39.33 12.96 39.66 15 40 C14.87625 38.88625 14.87625 38.88625 14.75 37.75 C15.07403732 34.18558943 16.4134713 33.35138973 19 31 C19.33 30.01 19.66 29.02 20 28 C20.969375 27.87625 21.93875 27.7525 22.9375 27.625 C23.948125 27.41875 24.95875 27.2125 26 27 C26.33 26.34 26.66 25.68 27 25 C26.195625 24.87625 25.39125 24.7525 24.5625 24.625 C23.716875 24.41875 22.87125 24.2125 22 24 C21.67 23.34 21.34 22.68 21 22 C21.33 21.34 21.66 20.68 22 20 C16.06 20 10.12 20 4 20 C4 18.68 4 17.36 4 16 C2.68 16 1.36 16 0 16 C0 10.72 0 5.44 0 0 Z " fill="#EECE2B" transform="translate(80,36)"/>
<path d="M0 0 C3.3 0 6.6 0 10 0 C10 2.83967231 9.59732819 5.23735711 9 8 C9.99 8 10.98 8 12 8 C12 6.68 12 5.36 12 4 C17.28 4 22.56 4 28 4 C28 7.96 28 11.92 28 16 C26.68 16 25.36 16 24 16 C24 17.32 24 18.64 24 20 C20.04 20 16.08 20 12 20 C11.67 18.68 11.34 17.36 11 16 C10.505 15.525625 10.01 15.05125 9.5 14.5625 C7.53426922 12.51486377 7.37331439 10.76252651 7 8 C6.34 8.66 5.68 9.32 5 10 C5.3185177 12.10820797 5.3185177 12.10820797 6 14 C4.68 14 3.36 14 2 14 C2.66 14.4125 3.32 14.825 4 15.25 C4.99 16.11625 4.99 16.11625 6 17 C6 21 6 21 4.5 22.75 C4.005 23.1625 3.51 23.575 3 24 C3.99 24.33 4.98 24.66 6 25 C5.33333333 27.66666667 4.66666667 30.33333333 4 33 C6.97 33 9.94 33 13 33 C13.33 33.99 13.66 34.98 14 36 C13.34 36 12.68 36 12 36 C12.254496 37.48206495 12.52911762 38.96068615 12.8125 40.4375 C12.96332031 41.26121094 13.11414063 42.08492187 13.26953125 42.93359375 C13.51058594 43.61550781 13.75164063 44.29742187 14 45 C15.485 45.495 15.485 45.495 17 46 C17 46.33 17 46.66 17 47 C19.64 47.33 22.28 47.66 25 48 C24.505 48.99 24.505 48.99 24 50 C26.97 50.66 29.94 51.32 33 52 C33 52.99 33 53.98 33 55 C34.32 55.66 35.64 56.32 37 57 C37 57.99 37 58.98 37 60 C37.99 59.67 38.98 59.34 40 59 C40.495 60.98 40.495 60.98 41 63 C45.95 63.33 50.9 63.66 56 64 C56 65.32 56 66.64 56 68 C49.4 68 42.8 68 36 68 C36.495 66.515 36.495 66.515 37 65 C35.35 64.34 33.7 63.68 32 63 C32 62.01 32 61.02 32 60 C28.04 60 24.08 60 20 60 C20 58.68 20 57.36 20 56 C18.68 56 17.36 56 16 56 C16 54.68 16 53.36 16 52 C14.68 52 13.36 52 12 52 C12 50.68 12 49.36 12 48 C10.68 48 9.36 48 8 48 C7.67 45.36 7.34 42.72 7 40 C6.01 40 5.02 40 4 40 C4 38.68 4 37.36 4 36 C1.36 36 -1.28 36 -4 36 C-3.814375 36.94875 -3.62875 37.8975 -3.4375 38.875 C-3 42 -3 42 -4 44 C-5.485 44.495 -5.485 44.495 -7 45 C-6.67 45.66 -6.34 46.32 -6 47 C-6.33 47.66 -6.66 48.32 -7 49 C-7.06996014 50.70702735 -7.08440154 52.41668003 -7.0625 54.125 C-7.04896484 55.49011719 -7.04896484 55.49011719 -7.03515625 56.8828125 C-7.02355469 57.58148438 -7.01195312 58.28015625 -7 59 C-6.01 59.33 -5.02 59.66 -4 60 C-4 61.32 -4 62.64 -4 64 C-5.32 64 -6.64 64 -8 64 C-8 62.68 -8 61.36 -8 60 C-9.32 60 -10.64 60 -12 60 C-12 54.72 -12 49.44 -12 44 C-13.32 44 -14.64 44 -16 44 C-16 38.72 -16 33.44 -16 28 C-14.68 28 -13.36 28 -12 28 C-12 24.04 -12 20.08 -12 16 C-10.68 16 -9.36 16 -8 16 C-8 13.36 -8 10.72 -8 8 C-6.68 8 -5.36 8 -4 8 C-4 6.68 -4 5.36 -4 4 C-2.68 4 -1.36 4 0 4 C0 2.68 0 1.36 0 0 Z " fill="#817B13" transform="translate(20,36)"/>
<path d="M0 0 C1.32 0 2.64 0 4 0 C4 5.28 4 10.56 4 16 C2.68 16 1.36 16 0 16 C0 18.64 0 21.28 0 24 C-1.32 24 -2.64 24 -4 24 C-4 25.32 -4 26.64 -4 28 C-5.32 28 -6.64 28 -8 28 C-8 29.32 -8 30.64 -8 32 C-9.32 32 -10.64 32 -12 32 C-12 33.32 -12 34.64 -12 36 C-14.64 36 -17.28 36 -20 36 C-20 36.99 -20 37.98 -20 39 C-22.64458379 40.32229189 -24.67761301 40.09677194 -27.625 40.0625 C-28.62789062 40.05347656 -29.63078125 40.04445312 -30.6640625 40.03515625 C-31.43492188 40.02355469 -32.20578125 40.01195312 -33 40 C-33 39.34 -33 38.68 -33 38 C-35.97851562 38.43945312 -35.97851562 38.43945312 -38.95703125 38.87890625 C-41 39 -41 39 -44 38 C-44 38.66 -44 39.32 -44 40 C-45.4540625 40.680625 -45.4540625 40.680625 -46.9375 41.375 C-50.07079582 42.65786221 -50.07079582 42.65786221 -51 45 C-52.65 44.67 -54.3 44.34 -56 44 C-55.67 42.68 -55.34 41.36 -55 40 C-56.98 40.495 -56.98 40.495 -59 41 C-59.226875 39.88625 -59.45375 38.7725 -59.6875 37.625 C-60.57595085 33.87123708 -60.57595085 33.87123708 -63.375 32.8125 C-64.24125 32.544375 -65.1075 32.27625 -66 32 C-68.1875 30 -68.1875 30 -70 28 C-70.66 27.34 -71.32 26.68 -72 26 C-71.67 25.34 -71.34 24.68 -71 24 C-72.65 23.67 -74.3 23.34 -76 23 C-75.67 22.01 -75.34 21.02 -75 20 C-76.65 20 -78.3 20 -80 20 C-80 14.72 -80 9.44 -80 4 C-78.68 4 -77.36 4 -76 4 C-76 5.32 -76 6.64 -76 8 C-75.01 8 -74.02 8 -73 8 C-72.67 10.64 -72.34 13.28 -72 16 C-70.68 16 -69.36 16 -68 16 C-68 17.32 -68 18.64 -68 20 C-66.68 20 -65.36 20 -64 20 C-64 21.32 -64 22.64 -64 24 C-62.68 24 -61.36 24 -60 24 C-60 25.32 -60 26.64 -60 28 C-56.04 28 -52.08 28 -48 28 C-47.505 29.485 -47.505 29.485 -47 31 C-43.99152582 32.22520264 -43.99152582 32.22520264 -41 33 C-41.99 33.33 -42.98 33.66 -44 34 C-44 34.66 -44 35.32 -44 36 C-42.72382812 35.91621094 -41.44765625 35.83242187 -40.1328125 35.74609375 C-38.46355965 35.64293768 -36.79428779 35.54008901 -35.125 35.4375 C-33.86236328 35.35338867 -33.86236328 35.35338867 -32.57421875 35.26757812 C-31.76855469 35.21923828 -30.96289062 35.17089844 -30.1328125 35.12109375 C-29.38918457 35.0739624 -28.64555664 35.02683105 -27.87939453 34.97827148 C-26 35 -26 35 -24 36 C-24 35.34 -24 34.68 -24 34 C-25.32 33.67 -26.64 33.34 -28 33 C-25.36 32.67 -22.72 32.34 -20 32 C-20 30.68 -20 29.36 -20 28 C-18.68 28 -17.36 28 -16 28 C-16 26.68 -16 25.36 -16 24 C-14.68 24 -13.36 24 -12 24 C-12 22.68 -12 21.36 -12 20 C-10.68 20 -9.36 20 -8 20 C-8 17.36 -8 14.72 -8 12 C-7.360625 11.896875 -6.72125 11.79375 -6.0625 11.6875 C-5.381875 11.460625 -4.70125 11.23375 -4 11 C-3.67 10.01 -3.34 9.02 -3 8 C-2.01 8 -1.02 8 0 8 C0 5.36 0 2.72 0 0 Z " fill="#1B1903" transform="translate(100,68)"/>
<path d="M0 0 C3.96 0 7.92 0 12 0 C12 1.32 12 2.64 12 4 C13.32 4 14.64 4 16 4 C16 6.64 16 9.28 16 12 C17.32 12 18.64 12 20 12 C20 10.68 20 9.36 20 8 C21.32 8 22.64 8 24 8 C24 6.68 24 5.36 24 4 C27.96 4 31.92 4 36 4 C34.1875 6.5 34.1875 6.5 32 9 C31.01 9 30.02 9 29 9 C29 9.99 29 10.98 29 12 C28.236875 12.28875 27.47375 12.5775 26.6875 12.875 C23.84970692 13.96269013 23.84970692 13.96269013 21 16 C20.27617533 18.05925139 20.27617533 18.05925139 20 20 C18.68 20 17.36 20 16 20 C16 22.64 16 25.28 16 28 C13.50935112 28.68707555 11.62113708 29 9 29 C7.47153339 25.94306678 7.76757555 23.37015453 8 20 C8.7734375 18.9790625 8.7734375 18.9790625 9.5625 17.9375 C11.36272387 15.96322499 11.36272387 15.96322499 10.6875 12.75 C10.3471875 11.38875 10.3471875 11.38875 10 10 C9.67 10 9.34 10 9 10 C8.67 12.97 8.34 15.94 8 19 C7.01 19.33 6.02 19.66 5 20 C5 20.66 5 21.32 5 22 C4.34 22 3.68 22 3 22 C3 24.97 3 27.94 3 31 C0.69 31 -1.62 31 -4 31 C-4 22.09 -4 13.18 -4 4 C-2.68 4 -1.36 4 0 4 C0 2.68 0 1.36 0 0 Z " fill="#E9D789" transform="translate(120,12)"/>
<path d="M0 0 C3.3 0 6.6 0 10 0 C10 2.83967231 9.59732819 5.23735711 9 8 C9.99 8 10.98 8 12 8 C12 6.68 12 5.36 12 4 C17.28 4 22.56 4 28 4 C28 7.96 28 11.92 28 16 C26.68 16 25.36 16 24 16 C24 17.32 24 18.64 24 20 C20.04 20 16.08 20 12 20 C11.67 18.68 11.34 17.36 11 16 C10.505 15.525625 10.01 15.05125 9.5 14.5625 C7.53426922 12.51486377 7.37331439 10.76252651 7 8 C6.34 8.66 5.68 9.32 5 10 C5.3185177 12.10820797 5.3185177 12.10820797 6 14 C4.68 14 3.36 14 2 14 C2.66 14.4125 3.32 14.825 4 15.25 C4.99 16.11625 4.99 16.11625 6 17 C6 21 6 21 4.5 22.75 C4.005 23.1625 3.51 23.575 3 24 C3.99 24.33 4.98 24.66 6 25 C5.42415568 27.38564077 4.77772405 29.66682784 4 32 C-1.445 32.495 -1.445 32.495 -7 33 C-7.33 31.35 -7.66 29.7 -8 28 C-7.01 28.33 -6.02 28.66 -5 29 C-4.1276588 26.00519083 -3.89170234 23.36424089 -3.9375 20.25 C-3.94652344 19.45078125 -3.95554687 18.6515625 -3.96484375 17.828125 C-3.97644531 17.22484375 -3.98804688 16.6215625 -4 16 C-3.01 15.67 -2.02 15.34 -1 15 C-3.31 14.01 -5.62 13.02 -8 12 C-8 10.68 -8 9.36 -8 8 C-6.68 8 -5.36 8 -4 8 C-4 6.68 -4 5.36 -4 4 C-2.68 4 -1.36 4 0 4 C0 2.68 0 1.36 0 0 Z " fill="#B4B10E" transform="translate(20,36)"/>
<path d="M0 0 C0.66 0 1.32 0 2 0 C2.28875 1.134375 2.5775 2.26875 2.875 3.4375 C3.24625 4.613125 3.6175 5.78875 4 7 C4.66 7.33 5.32 7.66 6 8 C5.01 8 4.02 8 3 8 C3.33 8.99 3.66 9.98 4 11 C3.99463447 12.35479692 3.95085136 13.70981746 3.875 15.0625 C3.936875 17.0115625 3.936875 17.0115625 4 19 C4.99 19.66 5.98 20.32 7 21 C7.66 21.66 8.32 22.32 9 23 C10.175625 23.165 11.35125 23.33 12.5625 23.5 C13.696875 23.665 14.83125 23.83 16 24 C16.33 24.66 16.66 25.32 17 26 C16.67 26.66 16.34 27.32 16 28 C19.63 28 23.26 28 27 28 C28 32 28 32 28 36 C29.32 36.33 30.64 36.66 32 37 C32 38.98 32 40.96 32 43 C32.928125 43.185625 32.928125 43.185625 33.875 43.375 C36 44 36 44 38 46 C37.67 46.33 37.34 46.66 37 47 C37.99 47.33 38.98 47.66 40 48 C40 48.99 40 49.98 40 51 C43.28519475 52.09506492 45.73663415 52.09960608 49.1875 52.0625 C50.27417969 52.05347656 51.36085937 52.04445312 52.48046875 52.03515625 C53.72763672 52.01775391 53.72763672 52.01775391 55 52 C55 53.32 55 54.64 55 56 C48.07 56 41.14 56 34 56 C34.495 55.01 34.495 55.01 35 54 C34.67 53.34 34.34 52.68 34 52 C33.01 52.33 32.02 52.66 31 53 C31 51.68 31 50.36 31 49 C29.68 48.34 28.36 47.68 27 47 C27.33 46.01 27.66 45.02 28 44 C26.9275 44.04125 25.855 44.0825 24.75 44.125 C21.34252515 44.0114175 19.79260369 43.78726636 17 42 C17.33 41.67 17.66 41.34 18 41 C16.741875 40.79375 15.48375 40.5875 14.1875 40.375 C10.72068461 39.50983014 10.18286645 39.25715595 8 36.1875 C7.06781689 33.21616634 6.72818639 31.08055428 7 28 C7.66 28 8.32 28 9 28 C8.67 27.34 8.34 26.68 8 26 C5.87423218 25.53348793 5.87423218 25.53348793 3.4375 25.375 C2.61121094 25.30023438 1.78492188 25.22546875 0.93359375 25.1484375 C0.29550781 25.09945312 -0.34257812 25.05046875 -1 25 C-0.47731534 22.23723823 0.10869587 19.6739124 1 17 C-0.32 16.67 -1.64 16.34 -3 16 C-1.625 14 -1.625 14 0 12 C0.66 12 1.32 12 2 12 C2 11.34 2 10.68 2 10 C1.34 9.67 0.68 9.34 0 9 C-1.34275169 8.01268258 -2.67732273 7.01405257 -4 6 C-3.01 5.67 -2.02 5.34 -1 5 C-0.34 5.33 0.32 5.66 1 6 C0.34 4.35 -0.32 2.7 -1 1 C-0.67 0.67 -0.34 0.34 0 0 Z " fill="#B7B506" transform="translate(25,44)"/>
<path d="M0 0 C3.96 0 7.92 0 12 0 C12 1.32 12 2.64 12 4 C13.32 4 14.64 4 16 4 C16 5.32 16 6.64 16 8 C14.68 8 13.36 8 12 8 C12 9.32 12 10.64 12 12 C10.68 12 9.36 12 8 12 C8 13.32 8 14.64 8 16 C6.68 16 5.36 16 4 16 C4 17.32 4 18.64 4 20 C2.68 20 1.36 20 0 20 C0 23.96 0 27.92 0 32 C-1.32 32 -2.64 32 -4 32 C-4 34.64 -4 37.28 -4 40 C-5.32 40 -6.64 40 -8 40 C-8 41.32 -8 42.64 -8 44 C-9.32 44 -10.64 44 -12 44 C-12 45.32 -12 46.64 -12 48 C-19.92 48 -27.84 48 -36 48 C-36 46.68 -36 45.36 -36 44 C-37.32 44 -38.64 44 -40 44 C-40 42.68 -40 41.36 -40 40 C-38.68 40 -37.36 40 -36 40 C-35.67 40.99 -35.34 41.98 -35 43 C-32.04112541 43.08069658 -29.0844341 43.14034665 -26.125 43.1875 C-25.28324219 43.21263672 -24.44148437 43.23777344 -23.57421875 43.26367188 C-22.76855469 43.27333984 -21.96289062 43.28300781 -21.1328125 43.29296875 C-20.38918457 43.3086792 -19.64555664 43.32438965 -18.87939453 43.34057617 C-18.25919434 43.22818604 -17.63899414 43.1157959 -17 43 C-16.34 42.01 -15.68 41.02 -15 40 C-11.875 39.3125 -11.875 39.3125 -9 39 C-8.34 36.69 -7.68 34.38 -7 32 C-6.34 32 -5.68 32 -5 32 C-5.061875 30.989375 -5.12375 29.97875 -5.1875 28.9375 C-4.94343497 23.81213443 -3.28178462 20.56356924 -1 16 C-3.31 16 -5.62 16 -8 16 C-8 17.32 -8 18.64 -8 20 C-8.99 20 -9.98 20 -11 20 C-10.67 19.01 -10.34 18.02 -10 17 C-11.65 16.67 -13.3 16.34 -15 16 C-16.31223496 12.06329512 -15.24296256 9.87511856 -14 6 C-13.34 6 -12.68 6 -12 6 C-12 7.98 -12 9.96 -12 12 C-10.68 12 -9.36 12 -8 12 C-8 10.68 -8 9.36 -8 8 C-6.68 8 -5.36 8 -4 8 C-4 6.68 -4 5.36 -4 4 C-2.68 4 -1.36 4 0 4 C0 2.68 0 1.36 0 0 Z " fill="#E9D15C" transform="translate(160,32)"/>
<path d="M0 0 C1.32 0 2.64 0 4 0 C4 1.32 4 2.64 4 4 C4.99 4 5.98 4 7 4 C7.33 6.64 7.66 9.28 8 12 C9.32 12 10.64 12 12 12 C12 13.32 12 14.64 12 16 C13.32 16 14.64 16 16 16 C16 17.32 16 18.64 16 20 C17.32 20 18.64 20 20 20 C20 21.32 20 22.64 20 24 C21.32 24 22.64 24 24 24 C24.33 24.99 24.66 25.98 25 27 C28.00847418 28.22520264 28.00847418 28.22520264 31 29 C30.34 29.66 29.68 30.32 29 31 C33.9600338 31.94288183 38.84514574 32.30248211 43.875 32.5625 C44.65875 32.60568359 45.4425 32.64886719 46.25 32.69335938 C48.16650649 32.79853351 50.08323333 32.89967925 52 33 C52 33.99 52 34.98 52 36 C50.35 36 48.7 36 47 36 C47 35.34 47 34.68 47 34 C44.02148438 34.43945312 44.02148438 34.43945312 41.04296875 34.87890625 C39 35 39 35 36 34 C36 34.66 36 35.32 36 36 C34.5459375 36.680625 34.5459375 36.680625 33.0625 37.375 C29.92920418 38.65786221 29.92920418 38.65786221 29 41 C27.35 40.67 25.7 40.34 24 40 C24.33 38.68 24.66 37.36 25 36 C23.02 36.495 23.02 36.495 21 37 C20.773125 35.88625 20.54625 34.7725 20.3125 33.625 C19.42404915 29.87123708 19.42404915 29.87123708 16.625 28.8125 C15.75875 28.544375 14.8925 28.27625 14 28 C11.8125 26 11.8125 26 10 24 C9.34 23.34 8.68 22.68 8 22 C8.33 21.34 8.66 20.68 9 20 C7.35 19.67 5.7 19.34 4 19 C4.33 18.01 4.66 17.02 5 16 C3.35 16 1.7 16 0 16 C0 10.72 0 5.44 0 0 Z " fill="#0D0B06" transform="translate(20,72)"/>
<path d="M0 0 C2.97 0 5.94 0 9 0 C9.33 0.99 9.66 1.98 10 3 C9.34 3 8.68 3 8 3 C8.254496 4.48206495 8.52911762 5.96068615 8.8125 7.4375 C8.96332031 8.26121094 9.11414062 9.08492187 9.26953125 9.93359375 C9.51058594 10.61550781 9.75164063 11.29742187 10 12 C10.99 12.33 11.98 12.66 13 13 C13 13.33 13 13.66 13 14 C15.64 14.33 18.28 14.66 21 15 C20.67 15.66 20.34 16.32 20 17 C22.97 17.66 25.94 18.32 29 19 C29 19.99 29 20.98 29 22 C30.32 22.66 31.64 23.32 33 24 C33 24.99 33 25.98 33 27 C33.99 26.67 34.98 26.34 36 26 C36.495 27.98 36.495 27.98 37 30 C41.95 30.33 46.9 30.66 52 31 C52 32.32 52 33.64 52 35 C45.4 35 38.8 35 32 35 C32.33 34.01 32.66 33.02 33 32 C31.35 31.34 29.7 30.68 28 30 C28 29.01 28 28.02 28 27 C24.04 27 20.08 27 16 27 C16 25.68 16 24.36 16 23 C14.68 23 13.36 23 12 23 C12 21.68 12 20.36 12 19 C10.68 19 9.36 19 8 19 C8 17.68 8 16.36 8 15 C6.68 15 5.36 15 4 15 C3.67 12.36 3.34 9.72 3 7 C2.01 7 1.02 7 0 7 C0 4.69 0 2.38 0 0 Z " fill="#918E06" transform="translate(24,69)"/>
<path d="M0 0 C2.31 0 4.62 0 7 0 C6.79503906 0.56847656 6.59007812 1.13695312 6.37890625 1.72265625 C4.70907331 6.5084454 3.53623064 10.95943201 3 16 C2.34 16 1.68 16 1 16 C0.67 18.31 0.34 20.62 0 23 C-1.11375 23.268125 -2.2275 23.53625 -3.375 23.8125 C-7.21840951 24.65809019 -7.21840951 24.65809019 -9 28 C-10.87939453 28.34057617 -10.87939453 28.34057617 -13.1328125 28.29296875 C-13.93847656 28.28330078 -14.74414062 28.27363281 -15.57421875 28.26367188 C-16.41597656 28.23853516 -17.25773438 28.21339844 -18.125 28.1875 C-19.39923828 28.16719727 -19.39923828 28.16719727 -20.69921875 28.14648438 C-22.79974837 28.11108219 -24.89995293 28.05727401 -27 28 C-27.33 26.68 -27.66 25.36 -28 24 C-29.32 24 -30.64 24 -32 24 C-32 22.68 -32 21.36 -32 20 C-31.360625 19.71125 -30.72125 19.4225 -30.0625 19.125 C-27.84793921 18.17176549 -27.84793921 18.17176549 -27 16 C-24.69 16.33 -22.38 16.66 -20 17 C-20 16.34 -20 15.68 -20 15 C-19.01 15 -18.02 15 -17 15 C-17.33 16.32 -17.66 17.64 -18 19 C-14.61981469 20.04005702 -11.5219721 20.08004482 -8 20 C-8 18.68 -8 17.36 -8 16 C-6.68 16 -5.36 16 -4 16 C-3.67 14.68 -3.34 13.36 -3 12 C-2.01 12 -1.02 12 0 12 C0 8.04 0 4.08 0 0 Z " fill="#EBC829" transform="translate(152,48)"/>
<path d="M0 0 C0.33 0.66 0.66 1.32 1 2 C1.66 2.33 2.32 2.66 3 3 C5 5 5 5 5 9 C7.64 9 10.28 9 13 9 C13 10.32 13 11.64 13 13 C13.68707031 12.88140625 14.37414062 12.7628125 15.08203125 12.640625 C15.98308594 12.51171875 16.88414063 12.3828125 17.8125 12.25 C18.70582031 12.11078125 19.59914063 11.9715625 20.51953125 11.828125 C23 12 23 12 24.82421875 13.859375 C26 16 26 16 26 18 C26.99 18.33 27.98 18.66 29 19 C27.68 19 26.36 19 25 19 C25 19.66 25 20.32 25 21 C26.32 21 27.64 21 29 21 C29 22.32 29 23.64 29 25 C25.04 25 21.08 25 17 25 C17 23.68 17 22.36 17 21 C14.36 21 11.72 21 9 21 C9 19.68 9 18.36 9 17 C7.68 17 6.36 17 5 17 C5 15.68 5 14.36 5 13 C3.68 13 2.36 13 1 13 C1 11.68 1 10.36 1 9 C-0.32 9 -1.64 9 -3 9 C-3 6.36 -3 3.72 -3 1 C-2.01 0.67 -1.02 0.34 0 0 Z " fill="#A39E5C" transform="translate(19,99)"/>
<path d="M0 0 C1.18851563 0.00902344 2.37703125 0.01804687 3.6015625 0.02734375 C4.51679687 0.03894531 5.43203125 0.05054687 6.375 0.0625 C6.705 1.0525 7.035 2.0425 7.375 3.0625 C9.39008358 3.79573796 9.39008358 3.79573796 11.375 4.0625 C10.715 5.3825 10.055 6.7025 9.375 8.0625 C10.035 8.0625 10.695 8.0625 11.375 8.0625 C11.375 12.0225 11.375 15.9825 11.375 20.0625 C10.055 20.0625 8.735 20.0625 7.375 20.0625 C7.375 17.4225 7.375 14.7825 7.375 12.0625 C2.095 12.0625 -3.185 12.0625 -8.625 12.0625 C-8.625 13.3825 -8.625 14.7025 -8.625 16.0625 C-9.945 16.3925 -11.265 16.7225 -12.625 17.0625 C-12.82586443 13.34650809 -12.7769437 12.29041555 -10.625 9.0625 C-13.595 8.5675 -13.595 8.5675 -16.625 8.0625 C-16.625 6.7425 -16.625 5.4225 -16.625 4.0625 C-13.985 4.0625 -11.345 4.0625 -8.625 4.0625 C-8.625 3.0725 -8.625 2.0825 -8.625 1.0625 C-5.74084117 -0.37957941 -3.20778472 -0.03144887 0 0 Z " fill="#E9E806" transform="translate(40.625,27.9375)"/>
<path d="M0 0 C1.32 0 2.64 0 4 0 C4 1.32 4 2.64 4 4 C2.68 4 1.36 4 0 4 C0 5.32 0 6.64 0 8 C2.64 8 5.28 8 8 8 C8 10.64 8 13.28 8 16 C5.36 16 2.72 16 0 16 C0 17.32 0 18.64 0 20 C-3.96 20 -7.92 20 -12 20 C-12 21.32 -12 22.64 -12 24 C-17.28 24 -22.56 24 -28 24 C-28 22.68 -28 21.36 -28 20 C-23.05 19.67 -18.1 19.34 -13 19 C-12.67 18.01 -12.34 17.02 -12 16 C-8.37 15.67 -4.74 15.34 -1 15 C-1.33 14.34 -1.66 13.68 -2 13 C-4.33744294 12.53193355 -6.69739079 12.17330206 -9.0625 11.875 C-10.35285156 11.70742187 -11.64320312 11.53984375 -12.97265625 11.3671875 C-13.97167969 11.24601562 -14.97070312 11.12484375 -16 11 C-16 10.01 -16 9.02 -16 8 C-12.535 7.505 -12.535 7.505 -9 7 C-8.67 6.01 -8.34 5.02 -8 4 C-5.36 3.67 -2.72 3.34 0 3 C0 2.01 0 1.02 0 0 Z " fill="#736F1E" transform="translate(80,104)"/>
<path d="M0 0 C2.64 0 5.28 0 8 0 C8 2.64 8 5.28 8 8 C9.32 8 10.64 8 12 8 C12 6.68 12 5.36 12 4 C13.32 4 14.64 4 16 4 C16 2.68 16 1.36 16 0 C19.96 0 23.92 0 28 0 C26.1875 2.5 26.1875 2.5 24 5 C23.01 5 22.02 5 21 5 C21 5.99 21 6.98 21 8 C20.236875 8.28875 19.47375 8.5775 18.6875 8.875 C15.84970692 9.96269013 15.84970692 9.96269013 13 12 C12.27617533 14.05925139 12.27617533 14.05925139 12 16 C10.68 16 9.36 16 8 16 C8 18.64 8 21.28 8 24 C5.50935112 24.68707555 3.62113708 25 1 25 C-0.52846661 21.94306678 -0.23242445 19.37015453 0 16 C0.515625 15.319375 1.03125 14.63875 1.5625 13.9375 C3.36272387 11.96322499 3.36272387 11.96322499 2.6875 8.75 C2.460625 7.8425 2.23375 6.935 2 6 C1.34 6 0.68 6 0 6 C0 4.02 0 2.04 0 0 Z " fill="#EAD884" transform="translate(128,16)"/>
<path d="M0 0 C1.32 0 2.64 0 4 0 C4 5.28 4 10.56 4 16 C5.32 16.33 6.64 16.66 8 17 C8 19.33333333 8 21.66666667 8 24 C9.32 24 10.64 24 12 24 C12 27.63 12 31.26 12 35 C13.32 35.33 14.64 35.66 16 36 C13.36 36 10.72 36 8 36 C8 34.68 8 33.36 8 32 C7.01 31.67 6.02 31.34 5 31 C4.34 30.01 3.68 29.02 3 28 C2.01 28 1.02 28 0 28 C0 26.68 0 25.36 0 24 C-1.32 23.67 -2.64 23.34 -4 23 C-4 10 -4 10 -2 7 C-1.34 7.33 -0.68 7.66 0 8 C0 5.36 0 2.72 0 0 Z " fill="#555305" transform="translate(16,72)"/>
<path d="M0 0 C1.32 0 2.64 0 4 0 C4.33 1.32 4.66 2.64 5 4 C5.99 4 6.98 4 8 4 C8 6.64 8 9.28 8 12 C6.68 12 5.36 12 4 12 C4 13.32 4 14.64 4 16 C2.68 16 1.36 16 0 16 C0 17.32 0 18.64 0 20 C-1.32 20 -2.64 20 -4 20 C-4 21.32 -4 22.64 -4 24 C-5.32 24 -6.64 24 -8 24 C-8 22.68 -8 21.36 -8 20 C-10.64 20 -13.28 20 -16 20 C-16 18.68 -16 17.36 -16 16 C-14.68 16 -13.36 16 -12 16 C-12 14.68 -12 13.36 -12 12 C-10.68 12 -9.36 12 -8 12 C-8 10.68 -8 9.36 -8 8 C-6.68 8 -5.36 8 -4 8 C-4 6.68 -4 5.36 -4 4 C-2.68 4 -1.36 4 0 4 C0 2.68 0 1.36 0 0 Z " fill="#AEAD0C" transform="translate(96,92)"/>
<path d="M0 0 C-0.99 0.495 -0.99 0.495 -2 1 C-2 1.66 -2 2.32 -2 3 C-1.01 3.33 -0.02 3.66 1 4 C1 5.65 1 7.3 1 9 C-1.64 9 -4.28 9 -7 9 C-7 16.92 -7 24.84 -7 33 C-8.32 33 -9.64 33 -11 33 C-11 35.64 -11 38.28 -11 41 C-12.32 41 -13.64 41 -15 41 C-15 39.68 -15 38.36 -15 37 C-16.98 37.495 -16.98 37.495 -19 38 C-19 35.03 -19 32.06 -19 29 C-17.35 29 -15.7 29 -14 29 C-14 27.68 -14 26.36 -14 25 C-13.34 25 -12.68 25 -12 25 C-11.93941406 23.89140625 -11.87882812 22.7828125 -11.81640625 21.640625 C-11.73197049 20.1770718 -11.64732401 18.71353075 -11.5625 17.25 C-11.50352539 16.15558594 -11.50352539 16.15558594 -11.44335938 15.0390625 C-11.23852902 11.5727027 -10.9147998 8.34666974 -10 5 C-9.34 5 -8.68 5 -8 5 C-7.87625 4.360625 -7.7525 3.72125 -7.625 3.0625 C-7.41875 2.381875 -7.2125 1.70125 -7 1 C-4.53721199 -0.231394 -2.7204945 -0.07159196 0 0 Z " fill="#F6F023" transform="translate(119,59)"/>
<path d="M0 0 C5.28 0 10.56 0 16 0 C16 3.96 16 7.92 16 12 C14.68 12 13.36 12 12 12 C12 13.32 12 14.64 12 16 C8.04 16 4.08 16 0 16 C0 10.72 0 5.44 0 0 Z " fill="#0F0D04" transform="translate(32,40)"/>
<path d="M0 0 C11.88 0 23.76 0 36 0 C36 1.32 36 2.64 36 4 C38.64 4 41.28 4 44 4 C44 5.32 44 6.64 44 8 C42.52031676 7.85950482 41.04125484 7.71245174 39.5625 7.5625 C38.73878906 7.48128906 37.91507813 7.40007813 37.06640625 7.31640625 C35 7 35 7 34 6 C26.47437557 4.86838665 19.03485744 4.88284275 11.4375 4.9375 C9.63829102 4.94426758 9.63829102 4.94426758 7.80273438 4.95117188 C4.86843641 4.96286231 1.93424551 4.97924862 -1 5 C-1 5.99 -1 6.98 -1 8 C-3.31 8.33 -5.62 8.66 -8 9 C-8 9.99 -8 10.98 -8 12 C-9.32 12 -10.64 12 -12 12 C-12 10.68 -12 9.36 -12 8 C-10.68 8 -9.36 8 -8 8 C-8 6.68 -8 5.36 -8 4 C-5.36 4 -2.72 4 0 4 C0 2.68 0 1.36 0 0 Z " fill="#F8E771" transform="translate(40,20)"/>
<path d="M0 0 C1.74627478 2.61941217 2.38722388 4.03824877 3 7 C2.34 7 1.68 7 1 7 C1.01160156 7.90363281 1.02320312 8.80726562 1.03515625 9.73828125 C1.04417969 10.91777344 1.05320312 12.09726563 1.0625 13.3125 C1.07410156 14.48425781 1.08570312 15.65601562 1.09765625 16.86328125 C1 20 1 20 0 23 C-0.66 23 -1.32 23 -2 23 C-2 24.32 -2 25.64 -2 27 C-3.65 27 -5.3 27 -7 27 C-7 25.68 -7 24.36 -7 23 C-5.68 23 -4.36 23 -3 23 C-3 17.72 -3 12.44 -3 7 C-4.32 7 -5.64 7 -7 7 C-7 9.64 -7 12.28 -7 15 C-7.99 15 -8.98 15 -10 15 C-10.33 16.32 -10.66 17.64 -11 19 C-12.32 19 -13.64 19 -15 19 C-15 21.64 -15 24.28 -15 27 C-16.32 27 -17.64 27 -19 27 C-19.33 24.36 -19.66 21.72 -20 19 C-19.34 18.67 -18.68 18.34 -18 18 C-18 16.68 -18 15.36 -18 14 C-15.03 14.495 -15.03 14.495 -12 15 C-12.0825 14.2575 -12.165 13.515 -12.25 12.75 C-11.92596268 9.18558943 -10.5865287 8.35138973 -8 6 C-7.67 5.01 -7.34 4.02 -7 3 C-6.030625 2.87625 -5.06125 2.7525 -4.0625 2.625 C-3.051875 2.41875 -2.04125 2.2125 -1 2 C-0.67 1.34 -0.34 0.68 0 0 Z " fill="#A8A516" transform="translate(107,61)"/>
<path d="M0 0 C3.96 0 7.92 0 12 0 C12 1.32 12 2.64 12 4 C13.32 4 14.64 4 16 4 C16 6.64 16 9.28 16 12 C14.68 12 13.36 12 12 12 C12 13.32 12 14.64 12 16 C9.36 16 6.72 16 4 16 C4 14.68 4 13.36 4 12 C2.68 12 1.36 12 0 12 C0 8.04 0 4.08 0 0 Z " fill="#181501" transform="translate(80,40)"/>
<path d="M0 0 C1.32 0 2.64 0 4 0 C4 1.32 4 2.64 4 4 C7.96 4 11.92 4 16 4 C16 2.68 16 1.36 16 0 C17.32 0 18.64 0 20 0 C20 0.99 20 1.98 20 3 C18.02 3.99 16.04 4.98 14 6 C14 6.66 14 7.32 14 8 C13.34 8 12.68 8 12 8 C12 9.32 12 10.64 12 12 C12.66 12 13.32 12 14 12 C14.33 11.34 14.66 10.68 15 10 C15.33 10.99 15.66 11.98 16 13 C15.67 13.66 15.34 14.32 15 15 C17.31 15.33 19.62 15.66 22 16 C21.505 16.474375 21.01 16.94875 20.5 17.4375 C18.88457803 18.75923698 18.88457803 18.75923698 19 20 C17.02 20 15.04 20 13 20 C13 19.01 13 18.02 13 17 C12.39671875 16.90203125 11.7934375 16.8040625 11.171875 16.703125 C7.61803259 16.03821255 4.60524347 15.33952683 1.4375 13.5625 C-0.94531611 9.31487128 -0.29535307 4.75846607 0 0 Z " fill="#D9D80B" transform="translate(28,52)"/>
<path d="M0 0 C3.40312738 1.05875074 6.01353231 2.00902154 9 4 C10.18919361 7.14286882 10.1800279 8.5446353 8.9375 11.6875 C6.47553017 14.62598012 4.7340004 15.25319992 1 16 C-1.8125 15.75 -1.8125 15.75 -4 15 C-4.33 14.34 -4.66 13.68 -5 13 C-5.99 12.67 -6.98 12.34 -8 12 C-8 9.36 -8 6.72 -8 4 C-6.865625 3.525625 -5.73125 3.05125 -4.5625 2.5625 C-1.24259834 1.36377917 -1.24259834 1.36377917 0 0 Z " fill="#F6E944" transform="translate(56,52)"/>
<path d="M0 0 C14.53846154 -0.23076923 14.53846154 -0.23076923 20.8125 2 C25.76420445 3.55347591 30.84005403 3.68272177 36 4 C36 5.32 36 6.64 36 8 C38.64 8 41.28 8 44 8 C44 10.64 44 13.28 44 16 C45.32 16 46.64 16 48 16 C48 18.31 48 20.62 48 23 C47.01 23.33 46.02 23.66 45 24 C44.34 20.7 43.68 17.4 43 14 C42.01 14.33 41.02 14.66 40 15 C40 14.01 40 13.02 40 12 C38.68 11.67 37.36 11.34 36 11 C36 10.34 36 9.68 36 9 C35.08476563 8.95101562 34.16953125 8.90203125 33.2265625 8.8515625 C32.03804687 8.77679688 30.84953125 8.70203125 29.625 8.625 C28.44164063 8.55539063 27.25828125 8.48578125 26.0390625 8.4140625 C23 8 23 8 21 6 C18.73334463 5.64955375 18.73334463 5.64955375 16.1875 5.5625 C11.95035159 5.22814826 9.56420051 4.37613367 6 2 C2.80604974 1.28598768 2.80604974 1.28598768 0 1 C0 0.67 0 0.34 0 0 Z " fill="#F6E944" transform="translate(56,24)"/>
<path d="M0 0 C1.32 0 2.64 0 4 0 C4.33 4.62 4.66 9.24 5 14 C5.66 13.34 6.32 12.68 7 12 C9.625 11.375 9.625 11.375 12 11 C12.33 11.99 12.66 12.98 13 14 C12.67 14.66 12.34 15.32 12 16 C11.01 16.33 10.02 16.66 9 17 C9.33 17.66 9.66 18.32 10 19 C9.67 19.66 9.34 20.32 9 21 C8.93003986 22.70702735 8.91559846 24.41668003 8.9375 26.125 C8.95103516 27.49011719 8.95103516 27.49011719 8.96484375 28.8828125 C8.97644531 29.58148438 8.98804688 30.28015625 9 31 C9.99 31.33 10.98 31.66 12 32 C12 33.32 12 34.64 12 36 C10.68 36 9.36 36 8 36 C8 34.68 8 33.36 8 32 C6.68 32 5.36 32 4 32 C4 26.72 4 21.44 4 16 C2.68 16 1.36 16 0 16 C0 10.72 0 5.44 0 0 Z " fill="#676415" transform="translate(4,64)"/>
<path d="M0 0 C2.375 -0.1875 2.375 -0.1875 5 0 C5.66 0.99 6.32 1.98 7 3 C6.67 3.99 6.34 4.98 6 6 C6.33 6.33 6.66 6.66 7 7 C7.66 7.66 8.32 8.32 9 9 C8.67 9.66 8.34 10.32 8 11 C8.99 11.99 9.98 12.98 11 14 C11 13.34 11 12.68 11 12 C11.99 12.33 12.98 12.66 14 13 C13.34 13 12.68 13 12 13 C12 13.99 12 14.98 12 16 C13.98 15.67 15.96 15.34 18 15 C18 15.66 18 16.32 18 17 C17.34 17 16.68 17 16 17 C16 17.66 16 18.32 16 19 C21.40744018 19.77249145 26.53862186 20.09752461 32 20 C32 21.32 32 22.64 32 24 C23.585 24.495 23.585 24.495 15 25 C15 24.34 15 23.68 15 23 C14.34 23 13.68 23 13 23 C13 22.01 13 21.02 13 20 C11.68 19.67 10.36 19.34 9 19 C9 18.34 9 17.68 9 17 C8.360625 16.79375 7.72125 16.5875 7.0625 16.375 C5 15 5 15 4.25 11.875 C4.1675 10.92625 4.085 9.9775 4 9 C3.01 8.67 2.02 8.34 1 8 C0.67 5.36 0.34 2.72 0 0 Z " fill="#D5D409" transform="translate(52,72)"/>
<path d="M0 0 C3.3 0 6.6 0 10 0 C10 0.66 10 1.32 10 2 C11.65 2 13.3 2 15 2 C15 3.32 15 4.64 15 6 C9.25 7.125 9.25 7.125 7 6 C7 6.99 7 7.98 7 9 C12.28 9.33 17.56 9.66 23 10 C22.67 11.32 22.34 12.64 22 14 C18.37 14 14.74 14 11 14 C10.67 14.66 10.34 15.32 10 16 C9.67 14.02 9.34 12.04 9 10 C8.278125 10.185625 7.55625 10.37125 6.8125 10.5625 C3.87173027 11.01995307 1.85896942 10.73516357 -1 10 C-1.125 3.375 -1.125 3.375 0 0 Z " fill="#262501" transform="translate(57,106)"/>
<path d="M0 0 C0.66 0 1.32 0 2 0 C2.28875 1.134375 2.5775 2.26875 2.875 3.4375 C3.24625 4.613125 3.6175 5.78875 4 7 C4.66 7.33 5.32 7.66 6 8 C5.01 8 4.02 8 3 8 C3.33 8.99 3.66 9.98 4 11 C3.99463447 12.35479692 3.95085136 13.70981746 3.875 15.0625 C3.936875 17.0115625 3.936875 17.0115625 4 19 C4.99 19.66 5.98 20.32 7 21 C7.66 21.66 8.32 22.32 9 23 C10.175625 23.165 11.35125 23.33 12.5625 23.5 C13.696875 23.665 14.83125 23.83 16 24 C16.33 24.66 16.66 25.32 17 26 C16.67 26.66 16.34 27.32 16 28 C16.66 28 17.32 28 18 28 C18 28.66 18 29.32 18 30 C17.38125 30.12375 16.7625 30.2475 16.125 30.375 C13.80879168 30.87197356 13.80879168 30.87197356 12 33 C12 32.01 12 31.02 12 30 C11.01 29.67 10.02 29.34 9 29 C9.33 29.99 9.66 30.98 10 32 C8.515 32.495 8.515 32.495 7 33 C7 31.35 7 29.7 7 28 C7.66 28 8.32 28 9 28 C8.67 27.34 8.34 26.68 8 26 C5.87423218 25.53348793 5.87423218 25.53348793 3.4375 25.375 C2.61121094 25.30023438 1.78492188 25.22546875 0.93359375 25.1484375 C0.29550781 25.09945312 -0.34257812 25.05046875 -1 25 C-0.47731534 22.23723823 0.10869587 19.6739124 1 17 C-0.32 16.67 -1.64 16.34 -3 16 C-1.625 14 -1.625 14 0 12 C0.66 12 1.32 12 2 12 C2 11.34 2 10.68 2 10 C1.34 9.67 0.68 9.34 0 9 C-1.34275169 8.01268258 -2.67732273 7.01405257 -4 6 C-3.01 5.67 -2.02 5.34 -1 5 C-0.34 5.33 0.32 5.66 1 6 C0.34 4.35 -0.32 2.7 -1 1 C-0.67 0.67 -0.34 0.34 0 0 Z M13 27 C14 29 14 29 14 29 Z " fill="#B9B705" transform="translate(25,44)"/>
<path d="M0 0 C1.32 0 2.64 0 4 0 C4 5.28 4 10.56 4 16 C2.68 16 1.36 16 0 16 C0 18.64 0 21.28 0 24 C-1.32 24 -2.64 24 -4 24 C-4.33 25.32 -4.66 26.64 -5 28 C-4.95875 27.05125 -4.9175 26.1025 -4.875 25.125 C-4.65026182 21.89755144 -4.65026182 21.89755144 -7 20 C-7.33 20 -7.66 20 -8 20 C-8 17.36 -8 14.72 -8 12 C-7.360625 11.896875 -6.72125 11.79375 -6.0625 11.6875 C-5.0415625 11.3471875 -5.0415625 11.3471875 -4 11 C-3.67 10.01 -3.34 9.02 -3 8 C-2.01 8 -1.02 8 0 8 C0 5.36 0 2.72 0 0 Z " fill="#454306" transform="translate(100,68)"/>
<path d="M0 0 C5.28 0 10.56 0 16 0 C16.33 0.66 16.66 1.32 17 2 C17.66 2 18.32 2 19 2 C20.75747614 6.50353262 21.19294408 10.17639811 21 15 C20.34 15 19.68 15 19 15 C19.33 16.32 19.66 17.64 20 19 C17.10765685 19.82638376 15.11257569 20 12 20 C12 18.68 12 17.36 12 16 C13.32 16 14.64 16 16 16 C16 13.36 16 10.72 16 8 C14.68 8 13.36 8 12 8 C12 6.68 12 5.36 12 4 C8.04 4 4.08 4 0 4 C0 2.68 0 1.36 0 0 Z " fill="#E7E517" transform="translate(80,36)"/>
<path d="M0 0 C0.33 1.32 0.66 2.64 1 4 C-0.98 4.33 -2.96 4.66 -5 5 C-4.67 8.3 -4.34 11.6 -4 15 C-4.66 15 -5.32 15 -6 15 C-6 16.98 -6 18.96 -6 21 C-6.66 21 -7.32 21 -8 21 C-7.67 21.99 -7.34 22.98 -7 24 C-8 25 -8 25 -10.5625 25.0625 C-11.366875 25.041875 -12.17125 25.02125 -13 25 C-13 23.68 -13 22.36 -13 21 C-11.68 21 -10.36 21 -9 21 C-9 18.03 -9 15.06 -9 12 C-9.66 11.67 -10.32 11.34 -11 11 C-10.34 11 -9.68 11 -9 11 C-9 10.34 -9 9.68 -9 9 C-9.66 9 -10.32 9 -11 9 C-10 6 -10 6 -9 5 C-10.65 4.67 -12.3 4.34 -14 4 C-14 3.01 -14 2.02 -14 1 C-12.04175306 0.83232136 -10.08339945 0.66588795 -8.125 0.5 C-6.48917969 0.36078125 -6.48917969 0.36078125 -4.8203125 0.21875 C-3.21670436 0.09437042 -1.60842449 0 0 0 Z " fill="#E5E408" transform="translate(61,27)"/>
<path d="M0 0 C2.64 0 5.28 0 8 0 C8 2.64 8 5.28 8 8 C7.01 8 6.02 8 5 8 C5 10.64 5 13.28 5 16 C5.99 16 6.98 16 8 16 C8 18.64 8 21.28 8 24 C5.50935112 24.68707555 3.62113708 25 1 25 C-0.52846661 21.94306678 -0.23242445 19.37015453 0 16 C0.515625 15.319375 1.03125 14.63875 1.5625 13.9375 C3.36272387 11.96322499 3.36272387 11.96322499 2.6875 8.75 C2.460625 7.8425 2.23375 6.935 2 6 C1.34 6 0.68 6 0 6 C0 4.02 0 2.04 0 0 Z " fill="#E9D57A" transform="translate(128,16)"/>
<path d="M0 0 C0 4.95 0 9.9 0 15 C-1.32 15 -2.64 15 -4 15 C-4 16.32 -4 17.64 -4 19 C-5.98 18.67 -7.96 18.34 -10 18 C-10.33 17.01 -10.66 16.02 -11 15 C-9.35 14.34 -7.7 13.68 -6 13 C-6 11.68 -6 10.36 -6 9 C-6.66 8.67 -7.32 8.34 -8 8 C-8.33 8.99 -8.66 9.98 -9 11 C-9.66 10.67 -10.32 10.34 -11 10 C-11.33 11.32 -11.66 12.64 -12 14 C-13.32 14.33 -14.64 14.66 -16 15 C-16.3125 12.6875 -16.3125 12.6875 -16 10 C-12.72821183 7.36439287 -11.27931853 7 -7 7 C-7 6.01 -7 5.02 -7 4 C-1.62857143 0 -1.62857143 0 0 0 Z " fill="#EFDA59" transform="translate(156,17)"/>
<path d="M0 0 C1.9375 0.375 1.9375 0.375 4 1 C4.33 1.66 4.66 2.32 5 3 C7.32156597 3.40729228 9.6568787 3.74438677 12 4 C12 4.99 12 5.98 12 7 C15.28519475 8.09506492 17.73663415 8.09960608 21.1875 8.0625 C22.27417969 8.05347656 23.36085938 8.04445313 24.48046875 8.03515625 C25.31191406 8.02355469 26.14335938 8.01195313 27 8 C27 9.32 27 10.64 27 12 C20.07 12 13.14 12 6 12 C6.33 11.34 6.66 10.68 7 10 C6.67 9.34 6.34 8.68 6 8 C5.01 8.33 4.02 8.66 3 9 C3 7.68 3 6.36 3 5 C1.68 4.34 0.36 3.68 -1 3 C-0.67 2.01 -0.34 1.02 0 0 Z " fill="#B1AF0B" transform="translate(53,88)"/>
<path d="M0 0 C1.32 0.33 2.64 0.66 4 1 C4 1.66 4 2.32 4 3 C4.99 3.66 5.98 4.32 7 5 C7 5.99 7 6.98 7 8 C8.65 8 10.3 8 12 8 C12.103125 8.598125 12.20625 9.19625 12.3125 9.8125 C13.1141384 12.36316765 13.90032564 13.36691995 16 15 C18.10332891 15.71447643 18.10332891 15.71447643 20 16 C19.67 17.65 19.34 19.3 19 21 C13.25 20.125 13.25 20.125 11 19 C11 17 11 17 12 16 C10.35 16 8.7 16 7 16 C6.67 14.68 6.34 13.36 6 12 C6 12.66 6 13.32 6 14 C5.01 13.67 4.02 13.34 3 13 C3 12.34 3 11.68 3 11 C2.34 10.67 1.68 10.34 1 10 C1.66 9.67 2.32 9.34 3 9 C2.01 8.34 1.02 7.68 0 7 C0 4.66666667 0 2.33333333 0 0 Z " fill="#E9E806" transform="translate(57,72)"/>
<path d="M0 0 C0.66 0.66 1.32 1.32 2 2 C1.01 2.33 0.02 2.66 -1 3 C-0.67 3.99 -0.34 4.98 0 6 C-0.4375 8.6875 -0.4375 8.6875 -1 11 C-0.360625 11.12375 0.27875 11.2475 0.9375 11.375 C1.618125 11.58125 2.29875 11.7875 3 12 C3.33 12.66 3.66 13.32 4 14 C6.01669827 15.13350534 6.01669827 15.13350534 8 16 C7.34 16.33 6.68 16.66 6 17 C6 17.66 6 18.32 6 19 C-0.0546875 19.1953125 -0.0546875 19.1953125 -2 19 C-2.66 18.34 -3.32 17.68 -4 17 C-3.34 16.67 -2.68 16.34 -2 16 C-3.65 15.67 -5.3 15.34 -7 15 C-6.67 13.68 -6.34 12.36 -6 11 C-6.99 11 -7.98 11 -9 11 C-9 9.68 -9 8.36 -9 7 C-8.34 7 -7.68 7 -7 7 C-7 6.34 -7 5.68 -7 5 C-7.66 4.67 -8.32 4.34 -9 4 C-7.6078125 3.566875 -7.6078125 3.566875 -6.1875 3.125 C-2.90208333 2.1125 -2.90208333 2.1125 0 0 Z " fill="#EBEA09" transform="translate(49,53)"/>
<path d="M0 0 C2.97 0.33 5.94 0.66 9 1 C8.34 2.32 7.68 3.64 7 5 C7.66 5 8.32 5 9 5 C9 8.96 9 12.92 9 17 C7.68 17 6.36 17 5 17 C5 14.36 5 11.72 5 9 C1.04 9 -2.92 9 -7 9 C-7 7.68 -7 6.36 -7 5 C-5.824375 4.87625 -5.824375 4.87625 -4.625 4.75 C-3.75875 4.5025 -2.8925 4.255 -2 4 C-1.34 2.68 -0.68 1.36 0 0 Z " fill="#DBD807" transform="translate(43,31)"/>
<path d="M0 0 C1.32 0 2.64 0 4 0 C4 5.28 4 10.56 4 16 C5.32 16.33 6.64 16.66 8 17 C7.34 17 6.68 17 6 17 C6.33 18.98 6.66 20.96 7 23 C5.02 23.66 3.04 24.32 1 25 C0.896875 23.783125 0.79375 22.56625 0.6875 21.3125 C0.22994608 17.5592316 -0.84311389 15.14545891 -3 12 C-3.33 11.01 -3.66 10.02 -4 9 C-3.34 8.34 -2.68 7.68 -2 7 C-1.34 7.33 -0.68 7.66 0 8 C0 5.36 0 2.72 0 0 Z " fill="#535204" transform="translate(16,72)"/>
<path d="M0 0 C1.32 0 2.64 0 4 0 C4.33 1.32 4.66 2.64 5 4 C5.99 4 6.98 4 8 4 C8 6.64 8 9.28 8 12 C6.68 12 5.36 12 4 12 C4 13.32 4 14.64 4 16 C2.68 16 1.36 16 0 16 C0 14.68 0 13.36 0 12 C-1.32 11.67 -2.64 11.34 -4 11 C-4 8.69 -4 6.38 -4 4 C-2.68 4 -1.36 4 0 4 C0 2.68 0 1.36 0 0 Z " fill="#CAC80E" transform="translate(96,92)"/>
<path d="M0 0 C1.32 0.33 2.64 0.66 4 1 C3.67 2.32 3.34 3.64 3 5 C2.34 5 1.68 5 1 5 C1.33 5.99 1.66 6.98 2 8 C1.69208308 9.671549 1.35613097 11.33805547 1 13 C0.9629721 14.6662553 0.95240038 16.33401319 1 18 C1.66 18 2.32 18 3 18 C3.33 17.34 3.66 16.68 4 16 C4 17.32 4 18.64 4 20 C-2.625 21.25 -2.625 21.25 -6 19 C-5.67 17.68 -5.34 16.36 -5 15 C-5.99 15 -6.98 15 -8 15 C-8 15.66 -8 16.32 -8 17 C-10.31 16.67 -12.62 16.34 -15 16 C-15.33 14.68 -15.66 13.36 -16 12 C-12.04 12 -8.08 12 -4 12 C-4 11.34 -4 10.68 -4 10 C-3.01 9.34 -2.02 8.68 -1 8 C-0.42251197 6.03638136 -0.42251197 6.03638136 -0.3125 3.875 C-0.209375 2.59625 -0.10625 1.3175 0 0 Z " fill="#F4D835" transform="translate(140,48)"/>
<path d="M0 0 C1.65 0 3.3 0 5 0 C5.33 0.66 5.66 1.32 6 2 C5.34 2 4.68 2 4 2 C4 2.66 4 3.32 4 4 C4.99 4 5.98 4 7 4 C7 6.64 7 9.28 7 12 C6.01 12.33 5.02 12.66 4 13 C3.67 13.99 3.34 14.98 3 16 C1.35 16 -0.3 16 -2 16 C-2 16.66 -2 17.32 -2 18 C-2.66 18 -3.32 18 -4 18 C-4.6875 15.1875 -4.6875 15.1875 -5 12 C-4 11 -3 10 -2 9 C-1.21643098 6.73606029 -1.21643098 6.73606029 -0.8125 4.3125 C-0.65394531 3.50425781 -0.49539062 2.69601563 -0.33203125 1.86328125 C-0.22246094 1.24839844 -0.11289063 0.63351563 0 0 Z " fill="#F3DE53" transform="translate(145,48)"/>
<path d="M0 0 C1.9451 2.91765 2.45276317 4.62537285 3 8 C3.66 7.67 4.32 7.34 5 7 C5.65555119 4.47266765 5.65555119 4.47266765 6 2 C6.66 2 7.32 2 8 2 C8 1.34 8 0.68 8 0 C8.66 0 9.32 0 10 0 C10 1.98 10 3.96 10 6 C9.01 6.33 8.02 6.66 7 7 C7 7.66 7 8.32 7 9 C6.34 9 5.68 9 5 9 C5 11.97 5 14.94 5 18 C2.69 18 0.38 18 -2 18 C-2 13.05 -2 8.1 -2 3 C-1.34 3 -0.68 3 0 3 C0 2.01 0 1.02 0 0 Z " fill="#EAD67E" transform="translate(118,25)"/>
<path d="M0 0 C2.97 0 5.94 0 9 0 C9.33 0.99 9.66 1.98 10 3 C9.34 3 8.68 3 8 3 C8.254496 4.48206495 8.52911762 5.96068615 8.8125 7.4375 C8.96332031 8.26121094 9.11414062 9.08492187 9.26953125 9.93359375 C9.51058594 10.61550781 9.75164063 11.29742187 10 12 C10.99 12.33 11.98 12.66 13 13 C13 13.66 13 14.32 13 15 C10.03 15 7.06 15 4 15 C3.67 12.36 3.34 9.72 3 7 C2.01 7 1.02 7 0 7 C0 4.69 0 2.38 0 0 Z " fill="#B7B507" transform="translate(24,69)"/>
<path d="M0 0 C3 3.46153846 3 3.46153846 3 6 C3.99 6.33 4.98 6.66 6 7 C4.68 7 3.36 7 2 7 C2 7.66 2 8.32 2 9 C3.32 9 4.64 9 6 9 C6 10.32 6 11.64 6 13 C2.04 13 -1.92 13 -6 13 C-6 9.04 -6 5.08 -6 1 C-2 0 -2 0 0 0 Z " fill="#343203" transform="translate(42,111)"/>
<path d="M0 0 C0.33 0.99 0.66 1.98 1 3 C1.66 3.165 2.32 3.33 3 3.5 C3.66 3.665 4.32 3.83 5 4 C5.33 4.99 5.66 5.98 6 7 C6.515625 7.515625 7.03125 8.03125 7.5625 8.5625 C8.036875 9.036875 8.51125 9.51125 9 10 C9 10.66 9 11.32 9 12 C9.66 12.33 10.32 12.66 11 13 C10.67 14.32 10.34 15.64 10 17 C11.65 16.67 13.3 16.34 15 16 C14.34 16.33 13.68 16.66 13 17 C12.59270772 19.32156597 12.25561323 21.6568787 12 24 C10.68 24 9.36 24 8 24 C8 22.35 8 20.7 8 19 C6.68 19 5.36 19 4 19 C4 15.37 4 11.74 4 8 C2.68 8 1.36 8 0 8 C-0.66 5.69 -1.32 3.38 -2 1 C-1.34 0.67 -0.68 0.34 0 0 Z " fill="#262501" transform="translate(24,88)"/>
<path d="M0 0 C3.96 0 7.92 0 12 0 C12 1.32 12 2.64 12 4 C11.01 4 10.02 4 9 4 C8.35224609 4.65935547 8.35224609 4.65935547 7.69140625 5.33203125 C5.38414813 7.60731812 2.93004807 8.47666342 -0.0625 9.6875 C-1.65771484 10.34298828 -1.65771484 10.34298828 -3.28515625 11.01171875 C-6 12 -6 12 -8 12 C-8 10.68 -8 9.36 -8 8 C-6.68 8 -5.36 8 -4 8 C-4 6.68 -4 5.36 -4 4 C-2.68 4 -1.36 4 0 4 C0 2.68 0 1.36 0 0 Z " fill="#F3E289" transform="translate(160,32)"/>
<path d="M0 0 C4.95 0 9.9 0 15 0 C14.67 0.99 14.34 1.98 14 3 C14.66 3.33 15.32 3.66 16 4 C7.585 4.495 7.585 4.495 -1 5 C-1 5.99 -1 6.98 -1 8 C-3.31 8.33 -5.62 8.66 -8 9 C-8 9.99 -8 10.98 -8 12 C-9.32 12 -10.64 12 -12 12 C-12 10.68 -12 9.36 -12 8 C-10.68 8 -9.36 8 -8 8 C-8 6.68 -8 5.36 -8 4 C-5.36 4 -2.72 4 0 4 C0 2.68 0 1.36 0 0 Z " fill="#F7E758" transform="translate(40,20)"/>
<path d="M0 0 C0.35729936 1.32711192 0.68325425 2.66262906 1 4 C1.3403125 5.3921875 1.3403125 5.3921875 1.6875 6.8125 C2.072244 10.7368888 1.47283851 13.35297131 0 17 C-2.125 18.4375 -2.125 18.4375 -4 19 C-3.125 12.25 -3.125 12.25 -2 10 C-1.34 10 -0.68 10 0 10 C-0.33 9.34 -0.66 8.68 -1 8 C-1.66 8 -2.32 8 -3 8 C-3.0825 9.11375 -3.165 10.2275 -3.25 11.375 C-3.4975 12.57125 -3.745 13.7675 -4 15 C-6.046875 16.2265625 -6.046875 16.2265625 -8 17 C-8.02694851 15.04174127 -8.04637218 13.08337774 -8.0625 11.125 C-8.07410156 10.03445312 -8.08570313 8.94390625 -8.09765625 7.8203125 C-8 5 -8 5 -7 3 C-4.69034152 1.94647157 -2.3570226 0.94280904 0 0 Z " fill="#F2DC57" transform="translate(144,41)"/>
<path d="M0 0 C2.70108504 0.090916 5.36930311 0.23740766 8.0625 0.4375 C9.20041992 0.51581055 9.20041992 0.51581055 10.36132812 0.59570312 C12.24121722 0.72575835 14.12065685 0.86228038 16 1 C16.66 3.31 17.32 5.62 18 8 C13.05 8 8.1 8 3 8 C2.67 6.02 2.34 4.04 2 2 C1.01 1.67 0.02 1.34 -1 1 C-0.67 0.67 -0.34 0.34 0 0 Z " fill="#151302" transform="translate(50,115)"/>
<path d="M0 0 C1.65 0 3.3 0 5 0 C5 1.32 5 2.64 5 4 C7.64 4 10.28 4 13 4 C12.67 5.32 12.34 6.64 12 8 C10.68 8 9.36 8 8 8 C8.33 9.32 8.66 10.64 9 12 C7.54207116 12.05399736 6.08357288 12.09279177 4.625 12.125 C3.81289062 12.14820313 3.00078125 12.17140625 2.1640625 12.1953125 C0 12 0 12 -2 10 C-1.34 9.34 -0.68 8.68 0 8 C0.24212873 6.01871492 0.24212873 6.01871492 0.125 3.875 C0.063125 1.956875 0.063125 1.956875 0 0 Z " fill="#F0DC78" transform="translate(103,44)"/>
<path d="M0 0 C2.92879371 0.62759865 5.36095629 1.58622659 8 3 C6.68 3.33 5.36 3.66 4 4 C4.33 7.63 4.66 11.26 5 15 C4.01 15.495 4.01 15.495 3 16 C2.01 15.67 1.02 15.34 0 15 C0 14.34 0 13.68 0 13 C-1.32 12.67 -2.64 12.34 -4 12 C-4 9.36 -4 6.72 -4 4 C-2.68 4 -1.36 4 0 4 C0 2.68 0 1.36 0 0 Z " fill="#7F791A" transform="translate(12,48)"/>
<path d="M0 0 C1.32 0 2.64 0 4 0 C4.33 1.65 4.66 3.3 5 5 C4.34 5 3.68 5 3 5 C3 6.32 3 7.64 3 9 C5.87459975 10.43729988 8.91054295 11.14181749 12 12 C12 13.32 12 14.64 12 16 C8.04 16 4.08 16 0 16 C0 10.72 0 5.44 0 0 Z " fill="#3A3805" transform="translate(32,40)"/>
<path d="M0 0 C0.33 2.31 0.66 4.62 1 7 C-3.32734391 9.22923777 -6.28400182 8.92470553 -11 8 C-11 5.69 -11 3.38 -11 1 C-7.2297564 -1.56376565 -4.32597804 -0.83191885 0 0 Z " fill="#F6E671" transform="translate(63,56)"/>
<path d="M0 0 C0.33 0 0.66 0 1 0 C1 2.64 1 5.28 1 8 C1.99 8 2.98 8 4 8 C4 8.99 4 9.98 4 11 C6.64 11 9.28 11 12 11 C12 8.69 12 6.38 12 4 C13.32 4 14.64 4 16 4 C16 6.64 16 9.28 16 12 C14.68 12 13.36 12 12 12 C12 13.32 12 14.64 12 16 C9.36 16 6.72 16 4 16 C4 14.68 4 13.36 4 12 C2.68 12 1.36 12 0 12 C0 8.04 0 4.08 0 0 Z " fill="#504D08" transform="translate(80,40)"/>
<path d="M0 0 C1.32 0 2.64 0 4 0 C4 1.32 4 2.64 4 4 C4.99 4 5.98 4 7 4 C7.33 6.64 7.66 9.28 8 12 C7.34 12 6.68 12 6 12 C5.67 12.99 5.34 13.98 5 15 C3.35 15.33 1.7 15.66 0 16 C0 10.72 0 5.44 0 0 Z " fill="#090706" transform="translate(20,72)"/>
<path d="M0 0 C0.66 0.33 1.32 0.66 2 1 C2.8125 3.8125 2.8125 3.8125 3 7 C1.6875 9 1.6875 9 0 11 C-1.4138347 14.40232886 -1.4138347 14.40232886 -2 18 C-2 18.66 -2 19.32 -2 20 C-1.36525925 21.34882408 -0.70151152 22.6846659 0 24 C-0.66 24.99 -1.32 25.98 -2 27 C-2.66 27 -3.32 27 -4 27 C-4 26.34 -4 25.68 -4 25 C-4.66 24.67 -5.32 24.34 -6 24 C-7.27368421 16.82105263 -7.27368421 16.82105263 -6 13 C-5.34 13 -4.68 13 -4 13 C-4 12.34 -4 11.68 -4 11 C-3.34 10.67 -2.68 10.34 -2 10 C-1.5709742 7.90658482 -1.5709742 7.90658482 -1.4375 5.5 C-1.09605489 1.09605489 -1.09605489 1.09605489 0 0 Z " fill="#F4E15C" transform="translate(129,21)"/>
<path d="M0 0 C1.32 0 2.64 0 4 0 C4 1.32 4 2.64 4 4 C2.68 4 1.36 4 0 4 C-0.1546875 4.8971875 -0.1546875 4.8971875 -0.3125 5.8125 C-1.09131128 8.2905359 -2.1107992 9.27507753 -4 11 C-4 11.33 -4 11.66 -4 12 C-12.57142857 12.14285714 -12.57142857 12.14285714 -16 11 C-16 10.01 -16 9.02 -16 8 C-12.535 7.505 -12.535 7.505 -9 7 C-8.67 6.01 -8.34 5.02 -8 4 C-5.36 3.67 -2.72 3.34 0 3 C0 2.01 0 1.02 0 0 Z " fill="#66640F" transform="translate(80,104)"/>
<path d="M0 0 C1.32 0 2.64 0 4 0 C4 1.32 4 2.64 4 4 C6.64 4 9.28 4 12 4 C12 6.64 12 9.28 12 12 C13.32 12 14.64 12 16 12 C16 14.31 16 16.62 16 19 C15.01 19.33 14.02 19.66 13 20 C12.34 16.7 11.68 13.4 11 10 C10.01 10.33 9.02 10.66 8 11 C8 10.01 8 9.02 8 8 C6.68 7.67 5.36 7.34 4 7 C4 6.34 4 5.68 4 5 C2.68 5 1.36 5 0 5 C-0.33 4.01 -0.66 3.02 -1 2 C-0.67 1.34 -0.34 0.68 0 0 Z " fill="#F6E94F" transform="translate(88,28)"/>
<path d="M0 0 C4.29 0 8.58 0 13 0 C12.67 0.66 12.34 1.32 12 2 C12.66 2.66 13.32 3.32 14 4 C12.35 4.33 10.7 4.66 9 5 C9 5.66 9 6.32 9 7 C9.99 7.33 10.98 7.66 12 8 C12 9.32 12 10.64 12 12 C10.68 12 9.36 12 8 12 C8 10.68 8 9.36 8 8 C6.68 8 5.36 8 4 8 C4 6.68 4 5.36 4 4 C2.68 4 1.36 4 0 4 C0 2.68 0 1.36 0 0 Z " fill="#8C890C" transform="translate(32,84)"/>
<path d="M0 0 C2.64 0 5.28 0 8 0 C8.33 0.99 8.66 1.98 9 3 C12.00847418 4.22520264 12.00847418 4.22520264 15 5 C14.01 5.33 13.02 5.66 12 6 C12 6.66 12 7.32 12 8 C17.28 8 22.56 8 28 8 C28 8.33 28 8.66 28 9 C24.56265937 9.08703823 21.12560163 9.14040272 17.6875 9.1875 C16.22280273 9.22520508 16.22280273 9.22520508 14.72851562 9.26367188 C13.32182617 9.27817383 13.32182617 9.27817383 11.88671875 9.29296875 C11.02264404 9.3086792 10.15856934 9.32438965 9.26831055 9.34057617 C6.5046739 8.92562911 5.77027951 8.09492274 4 6 C2.9171875 5.2575 2.9171875 5.2575 1.8125 4.5 C1.214375 4.005 0.61625 3.51 0 3 C0 2.01 0 1.02 0 0 Z " fill="#333103" transform="translate(44,96)"/>
<path d="M0 0 C2.97 0 5.94 0 9 0 C9 0.66 9 1.32 9 2 C10.32 2.66 11.64 3.32 13 4 C12.67 5.32 12.34 6.64 12 8 C10.68 8 9.36 8 8 8 C8 9.32 8 10.64 8 12 C6.68 12.33 5.36 12.66 4 13 C3.79913557 9.28400809 3.8480563 8.22791555 6 5 C3.03 4.505 3.03 4.505 0 4 C0 2.68 0 1.36 0 0 Z " fill="#C5C409" transform="translate(24,32)"/>
<path d="M0 0 C0.99 0.33 1.98 0.66 3 1 C3 2.65 3 4.3 3 6 C2.21625 6.185625 1.4325 6.37125 0.625 6.5625 C-2.39376342 7.83961627 -2.39376342 7.83961627 -3.3125 11.625 C-3.539375 12.73875 -3.76625 13.8525 -4 15 C-5.98 15 -7.96 15 -10 15 C-9.67 12.36 -9.34 9.72 -9 7 C-8.195625 6.731875 -7.39125 6.46375 -6.5625 6.1875 C-5.716875 5.795625 -4.87125 5.40375 -4 5 C-3.67 4.01 -3.34 3.02 -3 2 C-2.34 2 -1.68 2 -1 2 C-0.67 1.34 -0.34 0.68 0 0 Z " fill="#F5E145" transform="translate(148,25)"/>
<path d="M0 0 C-0.99 0.495 -0.99 0.495 -2 1 C-2 1.66 -2 2.32 -2 3 C-1.01 3.33 -0.02 3.66 1 4 C1 5.65 1 7.3 1 9 C-1.64 9 -4.28 9 -7 9 C-7.33 9.99 -7.66 10.98 -8 12 C-9.4606285 9.35261084 -10 8.10551666 -10 5 C-9.34 5 -8.68 5 -8 5 C-7.87625 4.360625 -7.7525 3.72125 -7.625 3.0625 C-7.41875 2.381875 -7.2125 1.70125 -7 1 C-4.53721199 -0.231394 -2.7204945 -0.07159196 0 0 Z " fill="#ECD852" transform="translate(119,59)"/>
<path d="M0 0 C1.32 0 2.64 0 4 0 C3.67 4.29 3.34 8.58 3 13 C2.01 12.67 1.02 12.34 0 12 C-0.33 14.64 -0.66 17.28 -1 20 C-1.99 19.67 -2.98 19.34 -4 19 C-4.125 11.375 -4.125 11.375 -3 8 C-2.01 8 -1.02 8 0 8 C0 5.36 0 2.72 0 0 Z " fill="#110F02" transform="translate(100,68)"/>
<path d="M0 0 C1.32 0 2.64 0 4 0 C4 1.32 4 2.64 4 4 C5.32 4 6.64 4 8 4 C8 4.66 8 5.32 8 6 C8.66 6 9.32 6 10 6 C10.33 7.98 10.66 9.96 11 12 C7.56629852 12.31215468 5.62383671 12.40465084 2.6875 10.5 C0.31711375 6.98831667 0.28043247 4.20648707 0 0 Z " fill="#DBDA09" transform="translate(28,52)"/>
<path d="M0 0 C2.64 0 5.28 0 8 0 C8 1.65 8 3.3 8 5 C7.34 5 6.68 5 6 5 C6 5.66 6 6.32 6 7 C5.01 7.495 5.01 7.495 4 8 C3.34444881 10.52733235 3.34444881 10.52733235 3 13 C2.01 13.33 1.02 13.66 0 14 C0 9.38 0 4.76 0 0 Z " fill="#F7E9A2" transform="translate(120,20)"/>
<path d="M0 0 C6.27 0 12.54 0 19 0 C19 1.32 19 2.64 19 4 C12.4 4 5.8 4 -1 4 C-0.67 2.68 -0.34 1.36 0 0 Z " fill="#7F7C0E" transform="translate(57,100)"/>
<path d="M0 0 C0.99 0 1.98 0 3 0 C3.84454356 3.37817425 4.10844919 5.67465243 3 9 C3.66 9.33 4.32 9.66 5 10 C4.67 11.65 4.34 13.3 4 15 C4.66 15.33 5.32 15.66 6 16 C3.03 16.33 0.06 16.66 -3 17 C-3.33 15.35 -3.66 13.7 -4 12 C-3.01 12.33 -2.02 12.66 -1 13 C-0.1276588 10.00519083 0.10829766 7.36424089 0.0625 4.25 C0.05347656 3.45078125 0.04445313 2.6515625 0.03515625 1.828125 C0.02355469 1.22484375 0.01195312 0.6215625 0 0 Z " fill="#AAA810" transform="translate(16,52)"/>
<path d="M0 0 C0.125 2.375 0.125 2.375 0 5 C-0.66 5.66 -1.32 6.32 -2 7 C-2 7.66 -2 8.32 -2 9 C-5.3 9 -8.6 9 -12 9 C-11.74438677 6.6568787 -11.40729228 4.32156597 -11 2 C-10.34 1.67 -9.68 1.34 -9 1 C-8.01 1.66 -7.02 2.32 -6 3 C-6.33 3.66 -6.66 4.32 -7 5 C-6.566875 4.54625 -6.13375 4.0925 -5.6875 3.625 C-1.92307692 0 -1.92307692 0 0 0 Z " fill="#F6E248" transform="translate(132,43)"/>
<path d="M0 0 C0.66 0 1.32 0 2 0 C2 1.98 2 3.96 2 6 C4.64 5.34 7.28 4.68 10 4 C9.67 5.65 9.34 7.3 9 9 C8.01 9.33 7.02 9.66 6 10 C6 11.32 6 12.64 6 14 C5.01 14 4.02 14 3 14 C3.33 13.01 3.66 12.02 4 11 C2.35 10.67 0.7 10.34 -1 10 C-2.31223496 6.06329512 -1.24296256 3.87511856 0 0 Z " fill="#E7D270" transform="translate(146,38)"/>
<path d="M0 0 C4.29 0 8.58 0 13 0 C12.67 2.64 12.34 5.28 12 8 C10.68 8 9.36 8 8 8 C8 6.68 8 5.36 8 4 C5.36 4 2.72 4 0 4 C0 2.68 0 1.36 0 0 Z " fill="#95921E" transform="translate(80,108)"/>
<path d="M0 0 C5.28 0 10.56 0 16 0 C16 1.32 16 2.64 16 4 C10.72 4 5.44 4 0 4 C0 2.68 0 1.36 0 0 Z " fill="#7A762E" transform="translate(52,124)"/>
<path d="M0 0 C1.32 0 2.64 0 4 0 C4 5.28 4 10.56 4 16 C2.68 16 1.36 16 0 16 C0 10.72 0 5.44 0 0 Z " fill="#9E9A45" transform="translate(4,64)"/>
<path d="M0 0 C0 1.32 0 2.64 0 4 C-1.32 4 -2.64 4 -4 4 C-4 6.64 -4 9.28 -4 12 C-5.32 12 -6.64 12 -8 12 C-8 8.37 -8 4.74 -8 1 C-3 -1 -3 -1 0 0 Z " fill="#F2E23D" transform="translate(112,88)"/>
<path d="M0 0 C5.61 0.33 11.22 0.66 17 1 C16.67 2.32 16.34 3.64 16 5 C12.37 5 8.74 5 5 5 C4.67 5.66 4.34 6.32 4 7 C3.67 5.02 3.34 3.04 3 1 C2.01 0.67 1.02 0.34 0 0 Z " fill="#2F2E02" transform="translate(63,115)"/>
<path d="M0 0 C0 0.66 0 1.32 0 2 C-0.66 2 -1.32 2 -2 2 C-2.33 2.99 -2.66 3.98 -3 5 C-5.0625 5.6875 -5.0625 5.6875 -7 6 C-7 7.32 -7 8.64 -7 10 C-9.31 10 -11.62 10 -14 10 C-13.625 7.25 -13.625 7.25 -12 4 C-8.36614577 1.95363158 -4.22793044 0 0 0 Z " fill="#F4E14D" transform="translate(168,38)"/>
<path d="M0 0 C0.33 0.66 0.66 1.32 1 2 C1.66 2.33 2.32 2.66 3 3 C5 5 5 5 5 9 C2.36 9 -0.28 9 -3 9 C-3 6.36 -3 3.72 -3 1 C-2.01 0.67 -1.02 0.34 0 0 Z " fill="#898635" transform="translate(19,99)"/>
<path d="M0 0 C0.33 0.66 0.66 1.32 1 2 C1.639375 1.814375 2.27875 1.62875 2.9375 1.4375 C3.9584375 1.2209375 3.9584375 1.2209375 5 1 C6 2 6 2 6.0625 5.5625 C6.041875 6.696875 6.02125 7.83125 6 9 C3.36 9 0.72 9 -2 9 C-0.68 8.34 0.64 7.68 2 7 C-0.475 6.01 -0.475 6.01 -3 5 C-3 3.68 -3 2.36 -3 1 C-2.01 0.67 -1.02 0.34 0 0 Z " fill="#0E0B05" transform="translate(86,42)"/>
<path d="M0 0 C0 4.95 0 9.9 0 15 C-1.32 14.67 -2.64 14.34 -4 14 C-4 13.01 -4 12.02 -4 11 C-4.15127402 9.43593472 -4.31902522 7.87340748 -4.5 6.3125 C-4.5928125 5.50425781 -4.685625 4.69601563 -4.78125 3.86328125 C-4.8534375 3.24839844 -4.925625 2.63351563 -5 2 C-1.125 0 -1.125 0 0 0 Z " fill="#E2CB59" transform="translate(156,17)"/>
<path d="M0 0 C1.65 0.33 3.3 0.66 5 1 C5 2.32 5 3.64 5 5 C4.34 5 3.68 5 3 5 C3 7.64 3 10.28 3 13 C1.68 13 0.36 13 -1 13 C-1.33 10.36 -1.66 7.72 -2 5 C-1.34 4.67 -0.68 4.34 0 4 C0 2.68 0 1.36 0 0 Z " fill="#D4CC21" transform="translate(89,75)"/>
<path d="M0 0 C3.3 0 6.6 0 10 0 C10 3 10 3 9 6 C7.35 6.33 5.7 6.66 4 7 C3.67 6.34 3.34 5.68 3 5 C2.01 4.67 1.02 4.34 0 4 C0 2.68 0 1.36 0 0 Z " fill="#BAB705" transform="translate(20,36)"/>
<path d="M0 0 C0.66 0 1.32 0 2 0 C2 1.98 2 3.96 2 6 C1.01 6.33 0.02 6.66 -1 7 C-1 7.66 -1 8.32 -1 9 C-1.66 9 -2.32 9 -3 9 C-3 11.97 -3 14.94 -3 18 C-3.99 18 -4.98 18 -6 18 C-6.08096803 16.54257537 -6.13917774 15.08387193 -6.1875 13.625 C-6.22230469 12.81289063 -6.25710937 12.00078125 -6.29296875 11.1640625 C-6.19628906 10.44992188 -6.09960938 9.73578125 -6 9 C-5.01 8.34 -4.02 7.68 -3 7 C-2.27034634 4.43717258 -2.27034634 4.43717258 -2 2 C-1.34 2 -0.68 2 0 2 C0 1.34 0 0.68 0 0 Z " fill="#F5E473" transform="translate(126,25)"/>
<path d="M0 0 C2.62506802 -0.02690844 5.24986173 -0.04679404 7.875 -0.0625 C8.62136719 -0.07087891 9.36773437 -0.07925781 10.13671875 -0.08789062 C15.7734375 -0.11328125 15.7734375 -0.11328125 18 1 C18 1.66 18 2.32 18 3 C12.06 3 6.12 3 0 3 C0 2.01 0 1.02 0 0 Z " fill="#F5F30D" transform="translate(39,25)"/>
<path d="M0 0 C1.98 0.99 1.98 0.99 4 2 C3.67 3.32 3.34 4.64 3 6 C4.65 5.67 6.3 5.34 8 5 C7.01 5.495 7.01 5.495 6 6 C5.59270772 8.32156597 5.25561323 10.6568787 5 13 C3.68 13 2.36 13 1 13 C-0.10228696 8.59085217 -0.07654536 4.51617599 0 0 Z " fill="#353303" transform="translate(31,99)"/>
<path d="M0 0 C0.99 0 1.98 0 3 0 C2.835 0.78375 2.67 1.5675 2.5 2.375 C1.9376293 4.88208039 1.9376293 4.88208039 2 7 C3.98 7.99 5.96 8.98 8 10 C7.01 10.495 7.01 10.495 6 11 C6 11.66 6 12.32 6 13 C3.5625 12.625 3.5625 12.625 1 12 C0.67 11.34 0.34 10.68 0 10 C0.33 9.34 0.66 8.68 1 8 C0.34 8 -0.32 8 -1 8 C-1.625 5.6875 -1.625 5.6875 -2 3 C-1.34 2.01 -0.68 1.02 0 0 Z " fill="#E0D221" transform="translate(101,48)"/>
<path d="M0 0 C2.31 0 4.62 0 7 0 C7.33 1.32 7.66 2.64 8 4 C7.360625 4.103125 6.72125 4.20625 6.0625 4.3125 C5.381875 4.539375 4.70125 4.76625 4 5 C3.67 5.99 3.34 6.98 3 8 C2.01 8 1.02 8 0 8 C0 5.36 0 2.72 0 0 Z " fill="#ACA912" transform="translate(16,40)"/>
<path d="M0 0 C3.96 0 7.92 0 12 0 C12 1.32 12 2.64 12 4 C8.04 4 4.08 4 0 4 C0 2.68 0 1.36 0 0 Z " fill="#8D894B" transform="translate(36,120)"/>
<path d="M0 0 C3.96 0 7.92 0 12 0 C12 1.32 12 2.64 12 4 C8.04 4 4.08 4 0 4 C0 2.68 0 1.36 0 0 Z " fill="#9D9952" transform="translate(20,108)"/>
<path d="M0 0 C3.96 0 7.92 0 12 0 C12 1.32 12 2.64 12 4 C8.04 4 4.08 4 0 4 C0 2.68 0 1.36 0 0 Z " fill="#79770B" transform="translate(32,52)"/>
<path d="M0 0 C2.33944736 0.28730055 4.6739143 0.61936779 7 1 C7 2.32 7 3.64 7 5 C5.68 5 4.36 5 3 5 C3 6.32 3 7.64 3 9 C1.68 9 0.36 9 -1 9 C-1.09765625 2.84765625 -1.09765625 2.84765625 -1 1 C-0.67 0.67 -0.34 0.34 0 0 Z " fill="#E6D163" transform="translate(169,35)"/>
<path d="M0 0 C3.96 0 7.92 0 12 0 C12 1.32 12 2.64 12 4 C8.04 4 4.08 4 0 4 C0 2.68 0 1.36 0 0 Z " fill="#706D15" transform="translate(36,36)"/>
<path d="M0 0 C0 2.97 0 5.94 0 9 C-0.99 9 -1.98 9 -3 9 C-3.33 10.32 -3.66 11.64 -4 13 C-4.66 13 -5.32 13 -6 13 C-5.65103136 4.83413394 -5.65103136 4.83413394 -3 1.4375 C-1 0 -1 0 0 0 Z " fill="#D7CB77" transform="translate(100,67)"/>
<path d="M0 0 C1.32 0.33 2.64 0.66 4 1 C4.92844389 5.33273814 4.92844389 8.66726186 4 13 C3.01 13 2.02 13 1 13 C-0.10228696 8.59085217 -0.07654536 4.51617599 0 0 Z " fill="#63600F" transform="translate(8,65)"/>
<path d="M0 0 C0 1.98 0 3.96 0 6 C-1.65 6.33 -3.3 6.66 -5 7 C-5.12375 6.195625 -5.2475 5.39125 -5.375 4.5625 C-5.684375 3.2940625 -5.684375 3.2940625 -6 2 C-6.66 1.67 -7.32 1.34 -8 1 C-8 0.34 -8 -0.32 -8 -1 C-4.59745511 -2.2151946 -3.06748874 -1.86240388 0 0 Z " fill="#E7C629" transform="translate(125,61)"/>
<path d="M0 0 C4.29 0 8.58 0 13 0 C13 1.32 13 2.64 13 4 C11.56260487 4.02712066 10.12506137 4.04645067 8.6875 4.0625 C7.48673828 4.07990234 7.48673828 4.07990234 6.26171875 4.09765625 C4 4 4 4 1 3 C0.67 2.01 0.34 1.02 0 0 Z " fill="#F7EAA3" transform="translate(63,20)"/>
<path d="M0 0 C1.4540625 0.0309375 1.4540625 0.0309375 2.9375 0.0625 C3.625 1.875 3.625 1.875 3.9375 4.0625 C2.5 5.8125 2.5 5.8125 0.9375 7.0625 C1.8965625 6.7840625 1.8965625 6.7840625 2.875 6.5 C7.01084611 5.90916484 10.8226173 6.47978241 14.9375 7.0625 C14.9375 7.3925 14.9375 7.7225 14.9375 8.0625 C9.9875 8.0625 5.0375 8.0625 -0.0625 8.0625 C-0.3925 6.0825 -0.7225 4.1025 -1.0625 2.0625 C-2.0525 1.7325 -3.0425 1.4025 -4.0625 1.0625 C-3.0625 0.0625 -3.0625 0.0625 0 0 Z " fill="#070506" transform="translate(53.0625,114.9375)"/>
<path d="M0 0 C1.65 0 3.3 0 5 0 C5 0.99 5 1.98 5 3 C4.34 3 3.68 3 3 3 C3.33 4.32 3.66 5.64 4 7 C1.10765685 7.82638376 -0.88742431 8 -4 8 C-4 6.68 -4 5.36 -4 4 C-2.68 4 -1.36 4 0 4 C0 2.68 0 1.36 0 0 Z " fill="#DFDB0F" transform="translate(96,48)"/>
<path d="M0 0 C2.125 0.9375 2.125 0.9375 4 2 C3.67 2.66 3.34 3.32 3 4 C3.66 4 4.32 4 5 4 C5 5.65 5 7.3 5 9 C2.69 8.34 0.38 7.68 -2 7 C-2 5.02 -2 3.04 -2 1 C-1.34 0.67 -0.68 0.34 0 0 Z " fill="#07040B" transform="translate(26,84)"/>
<path d="M0 0 C0.99 0.33 1.98 0.66 3 1 C1.25 5.875 1.25 5.875 -1 7 C-1 8.32 -1 9.64 -1 11 C-1.66 11 -2.32 11 -3 11 C-3 11.66 -3 12.32 -3 13 C-3.66 13 -4.32 13 -5 13 C-5.6875 10.1875 -5.6875 10.1875 -6 7 C-4.75 5.375 -4.75 5.375 -3 4 C-1.98199424 2.68036291 -0.97751635 1.34990354 0 0 Z " fill="#F7E66B" transform="translate(146,53)"/>
<path d="M0 0 C2 3 2 3 3 7 C-0.3 7 -3.6 7 -7 7 C-7 5.68 -7 4.36 -7 3 C-5.5459375 2.814375 -5.5459375 2.814375 -4.0625 2.625 C-2.5465625 2.315625 -2.5465625 2.315625 -1 2 C-0.67 1.34 -0.34 0.68 0 0 Z " fill="#CCC918" transform="translate(107,61)"/>
<path d="M0 0 C2.97 0 5.94 0 9 0 C9 0.66 9 1.32 9 2 C10.32 2.66 11.64 3.32 13 4 C8.71 4 4.42 4 0 4 C0 2.68 0 1.36 0 0 Z " fill="#CCCA08" transform="translate(24,32)"/>
<path d="M0 0 C3.96 0 7.92 0 12 0 C12 1.33333333 12 2.66666667 12 4 C3.42857143 4.14285714 3.42857143 4.14285714 0 3 C0 2.01 0 1.02 0 0 Z " fill="#4D4B07" transform="translate(64,112)"/>
<path d="M0 0 C0.33 0.66 0.66 1.32 1 2 C1.66 1.67 2.32 1.34 3 1 C3 2.32 3 3.64 3 5 C1.68 5 0.36 5 -1 5 C-1 6.32 -1 7.64 -1 9 C-2.32 9 -3.64 9 -5 9 C-4.67 7.35 -4.34 5.7 -4 4 C-3.34 4 -2.68 4 -2 4 C-2 3.34 -2 2.68 -2 2 C-2.99 1.67 -3.98 1.34 -5 1 C-2 0 -2 0 0 0 Z " fill="#D6C731" transform="translate(101,99)"/>
<path d="M0 0 C0.75 1.75 0.75 1.75 1 4 C-0.31129922 5.35500919 -1.64691687 6.68671343 -3 8 C-3.79681318 10.64184541 -3.79681318 10.64184541 -4 13 C-4.99 13 -5.98 13 -7 13 C-7.75 11.3125 -7.75 11.3125 -8 9 C-6.125 6.375 -6.125 6.375 -4 4 C-3.67 3.34 -3.34 2.68 -3 2 C-2.01 2 -1.02 2 0 2 C0 1.34 0 0.68 0 0 Z " fill="#F2E651" transform="translate(99,63)"/>
<path d="M0 0 C1.65 0 3.3 0 5 0 C5 1.65 5 3.3 5 5 C5.66 5 6.32 5 7 5 C7.33 4.34 7.66 3.68 8 3 C8 4.32 8 5.64 8 7 C5.69 7.33 3.38 7.66 1 8 C0.17361624 5.10765685 0 3.11257569 0 0 Z " fill="#F8DF45" transform="translate(136,61)"/>
<path d="M0 0 C0.66 0 1.32 0 2 0 C2.28875 1.134375 2.5775 2.26875 2.875 3.4375 C3.24625 4.613125 3.6175 5.78875 4 7 C4.66 7.33 5.32 7.66 6 8 C5.01 8 4.02 8 3 8 C3.33 8.99 3.66 9.98 4 11 C1.04590299 9.62845496 -1.44008376 8.01136276 -4 6 C-3.01 5.67 -2.02 5.34 -1 5 C-0.34 5.33 0.32 5.66 1 6 C0.34 4.35 -0.32 2.7 -1 1 C-0.67 0.67 -0.34 0.34 0 0 Z " fill="#C3C205" transform="translate(25,44)"/>
<path d="M0 0 C2.92879371 0.62759865 5.36095629 1.58622659 8 3 C6.2984375 3.4021875 6.2984375 3.4021875 4.5625 3.8125 C2.7990625 4.4003125 2.7990625 4.4003125 1 5 C0.67 5.99 0.34 6.98 0 8 C-1.32 8 -2.64 8 -4 8 C-4 6.68 -4 5.36 -4 4 C-2.68 4 -1.36 4 0 4 C0 2.68 0 1.36 0 0 Z " fill="#95931D" transform="translate(12,48)"/>
<path d="M0 0 C0.99 0 1.98 0 3 0 C3.33 1.32 3.66 2.64 4 4 C7.465 3.505 7.465 3.505 11 3 C11 4.32 11 5.64 11 7 C8.00507424 7.68066494 5.69912251 8.17005683 2.6875 7.4375 C0.18964306 5.30969594 0.27514008 3.16411094 0 0 Z " fill="#EBD556" transform="translate(125,37)"/>
<path d="M0 0 C1.65 0 3.3 0 5 0 C5.33 1.98 5.66 3.96 6 6 C1.25 7.125 1.25 7.125 -1 6 C-0.67 4.02 -0.34 2.04 0 0 Z " fill="#F6E596" transform="translate(55,57)"/>
<path d="M0 0 C0.33 0 0.66 0 1 0 C1 3.96 1 7.92 1 12 C-0.32 12 -1.64 12 -3 12 C-2.67 8.7 -2.34 5.4 -2 2 C-1.34 2 -0.68 2 0 2 C0 1.34 0 0.68 0 0 Z " fill="#383607" transform="translate(47,40)"/>
<path d="M0 0 C3.96 0 7.92 0 12 0 C12.33 0.99 12.66 1.98 13 3 C8.71 3 4.42 3 0 3 C0 2.01 0 1.02 0 0 Z " fill="#F6E472" transform="translate(40,20)"/>
<path d="M0 0 C1.32 0 2.64 0 4 0 C4.33 2.31 4.66 4.62 5 7 C3.35 7.66 1.7 8.32 0 9 C0 6.03 0 3.06 0 0 Z " fill="#E8E609" transform="translate(100,88)"/>
<path d="M0 0 C1.32 0 2.64 0 4 0 C4 1.32 4 2.64 4 4 C5.32 4 6.64 4 8 4 C7.67 5.32 7.34 6.64 7 8 C5.68 8.33 4.36 8.66 3 9 C3 7.35 3 5.7 3 4 C2.34 4 1.68 4 1 4 C0.67 2.68 0.34 1.36 0 0 Z M1 8 C1.66 8.33 2.32 8.66 3 9 C2.67 9.99 2.34 10.98 2 12 C1.34 11.34 0.68 10.68 0 10 C0.33 9.34 0.66 8.68 1 8 Z " fill="#171403" transform="translate(28,84)"/>
<path d="M0 0 C1.32 0.33 2.64 0.66 4 1 C4 3.31 4 5.62 4 8 C5.32 8 6.64 8 8 8 C8 9.32 8 10.64 8 12 C6.68 12 5.36 12 4 12 C3.67 9.36 3.34 6.72 3 4 C2.01 4 1.02 4 0 4 C0 2.68 0 1.36 0 0 Z " fill="#636113" transform="translate(24,72)"/>
<path d="M0 0 C2.31 0 4.62 0 7 0 C7.33 0.99 7.66 1.98 8 3 C7.34 3.66 6.68 4.32 6 5 C6.99 6.485 6.99 6.485 8 8 C6.68 7.67 5.36 7.34 4 7 C4 6.01 4 5.02 4 4 C2.68 4 1.36 4 0 4 C0 2.68 0 1.36 0 0 Z " fill="#E3CC45" transform="translate(120,68)"/>
<path d="M0 0 C-0.99 1.485 -0.99 1.485 -2 3 C-2.66 2.67 -3.32 2.34 -4 2 C-4.33 3.32 -4.66 4.64 -5 6 C-6.32 6.33 -7.64 6.66 -9 7 C-9.3125 4.6875 -9.3125 4.6875 -9 2 C-5.85636787 -0.61969344 -3.87356388 -1.57811862 0 0 Z " fill="#F5E463" transform="translate(149,25)"/>
<path d="M0 0 C1.65 0 3.3 0 5 0 C5 0.99 5 1.98 5 3 C9.62 3 14.24 3 19 3 C19 3.33 19 3.66 19 4 C12.73 4 6.46 4 0 4 C0 2.68 0 1.36 0 0 Z " fill="#3A3804" transform="translate(48,120)"/>
<path d="M0 0 C1.98 0 3.96 0 6 0 C5.67 0.66 5.34 1.32 5 2 C3.68 1.67 2.36 1.34 1 1 C1 1.66 1 2.32 1 3 C1.66 3 2.32 3 3 3 C3 3.66 3 4.32 3 5 C3.99 5.33 4.98 5.66 6 6 C5.01 6.33 4.02 6.66 3 7 C2.01 8.485 2.01 8.485 1 10 C0.7525 9.38125 0.505 8.7625 0.25 8.125 C-1.20628639 5.64931313 -2.37812506 5.04874998 -5 4 C-3.35 4 -1.7 4 0 4 C0 2.68 0 1.36 0 0 Z " fill="#0C0A03" transform="translate(85,93)"/>
<path d="M0 0 C1.9375 0.375 1.9375 0.375 4 1 C4.33 1.66 4.66 2.32 5 3 C5.99 3.33 6.98 3.66 8 4 C7.1875 5.9375 7.1875 5.9375 6 8 C5.01 8.33 4.02 8.66 3 9 C3 7.68 3 6.36 3 5 C1.68 4.34 0.36 3.68 -1 3 C-0.67 2.01 -0.34 1.02 0 0 Z " fill="#AFAC0D" transform="translate(53,88)"/>
<path d="M0 0 C1.32 0 2.64 0 4 0 C4 2.31 4 4.62 4 7 C4.66 7.33 5.32 7.66 6 8 C5.34 8 4.68 8 4 8 C3.67 8.66 3.34 9.32 3 10 C2.34 9.34 1.68 8.68 1 8 C0.67 8 0.34 8 0 8 C0 5.36 0 2.72 0 0 Z " fill="#434010" transform="translate(92,80)"/>
<path d="M0 0 C2.475 0.495 2.475 0.495 5 1 C5.103125 1.639375 5.20625 2.27875 5.3125 2.9375 C5.539375 3.618125 5.76625 4.29875 6 5 C6.99 5.33 7.98 5.66 9 6 C9 6.66 9 7.32 9 8 C7.35 8 5.7 8 4 8 C4 6.68 4 5.36 4 4 C2.68 4 1.36 4 0 4 C0 2.68 0 1.36 0 0 Z " fill="#A7A40D" transform="translate(28,76)"/>
<path d="M0 0 C1.32 0 2.64 0 4 0 C4.33 0.99 4.66 1.98 5 3 C5.99 3.33 6.98 3.66 8 4 C8.6875 6.0625 8.6875 6.0625 9 8 C7.35 8 5.7 8 4 8 C4 6.68 4 5.36 4 4 C2.68 4 1.36 4 0 4 C0 2.68 0 1.36 0 0 Z " fill="#EDD97E" transform="translate(120,72)"/>
<path d="M0 0 C0.185625 0.598125 0.37125 1.19625 0.5625 1.8125 C2.72273753 5.09981799 5.35107655 5.64854687 9 7 C9 8.32 9 9.64 9 11 C5.94082833 10.66009204 4.19598492 10.14301602 1.6875 8.3125 C-0.45553291 5.37575119 -0.32316568 3.55482252 0 0 Z " fill="#D0CE0A" transform="translate(28,57)"/>
<path d="M0 0 C-1.32 0.33 -2.64 0.66 -4 1 C-3.67 2.32 -3.34 3.64 -3 5 C-5.64 5 -8.28 5 -11 5 C-10.625 3.0625 -10.625 3.0625 -10 1 C-6.78548731 -0.60725635 -3.56387464 -0.05748185 0 0 Z " fill="#F6E573" transform="translate(115,51)"/>
<path d="M0 0 C3.3 0 6.6 0 10 0 C10.33 1.32 10.66 2.64 11 4 C3.57142857 4.28571429 3.57142857 4.28571429 0 2 C0 1.34 0 0.68 0 0 Z " fill="#D8D709" transform="translate(33,32)"/>
<path d="M0 0 C1.65 0 3.3 0 5 0 C4.67 2.64 4.34 5.28 4 8 C2.68 8 1.36 8 0 8 C0 5.36 0 2.72 0 0 Z " fill="#67661D" transform="translate(36,112)"/>
<path d="M0 0 C1.32 0 2.64 0 4 0 C4.33 0.99 4.66 1.98 5 3 C5.99 3.33 6.98 3.66 8 4 C8 5.32 8 6.64 8 8 C6.68 8 5.36 8 4 8 C4 6.68 4 5.36 4 4 C2.68 4 1.36 4 0 4 C0 2.68 0 1.36 0 0 Z " fill="#A29E53" transform="translate(8,92)"/>
<path d="M0 0 C1.32 0 2.64 0 4 0 C4.33 0.99 4.66 1.98 5 3 C5.99 3.33 6.98 3.66 8 4 C8 5.32 8 6.64 8 8 C6.68 8 5.36 8 4 8 C4 6.68 4 5.36 4 4 C2.68 4 1.36 4 0 4 C0 2.68 0 1.36 0 0 Z " fill="#5C5A09" transform="translate(36,88)"/>
<path d="M0 0 C1.32 0.33 2.64 0.66 4 1 C3.67 1.99 3.34 2.98 3 4 C2.34 4 1.68 4 1 4 C1 5.32 1 6.64 1 8 C-0.65 8 -2.3 8 -4 8 C-4 6.68 -4 5.36 -4 4 C-2.68 4 -1.36 4 0 4 C0 2.68 0 1.36 0 0 Z " fill="#C4C112" transform="translate(104,80)"/>
<path d="M0 0 C3.96 0 7.92 0 12 0 C12 0.66 12 1.32 12 2 C9.69 2 7.38 2 5 2 C4.67 2.99 4.34 3.98 4 5 C2.68 4.67 1.36 4.34 0 4 C0 2.68 0 1.36 0 0 Z " fill="#EDDB8E" transform="translate(160,32)"/>
<path d="M0 0 C1.98 0 3.96 0 6 0 C5.67 0.66 5.34 1.32 5 2 C4.34 2 3.68 2 3 2 C3.33 3.98 3.66 5.96 4 8 C2.68 8 1.36 8 0 8 C0 5.36 0 2.72 0 0 Z " fill="#F3DF93" transform="translate(133,24)"/>
<path d="M0 0 C2.64 0 5.28 0 8 0 C7.67 1.32 7.34 2.64 7 4 C4.36 4 1.72 4 -1 4 C-0.67 2.68 -0.34 1.36 0 0 Z " fill="#5D5B12" transform="translate(68,120)"/>
<path d="M0 0 C2.64 0 5.28 0 8 0 C8 1.32 8 2.64 8 4 C5.36 4 2.72 4 0 4 C0 2.68 0 1.36 0 0 Z " fill="#C1BA75" transform="translate(28,116)"/>
<path d="M0 0 C1.32 0 2.64 0 4 0 C4 2.64 4 5.28 4 8 C2.68 8 1.36 8 0 8 C-0.79953138 4.71303767 -1.09658936 3.28976808 0 0 Z " fill="#ACA822" transform="translate(92,104)"/>
<path d="M0 0 C2.64 0 5.28 0 8 0 C8.33 1.32 8.66 2.64 9 4 C6.36 4 3.72 4 1 4 C0.67 2.68 0.34 1.36 0 0 Z " fill="#5A580C" transform="translate(44,96)"/>
<path d="M0 0 C2.64 0 5.28 0 8 0 C8 1.32 8 2.64 8 4 C5.36 4 2.72 4 0 4 C0 2.68 0 1.36 0 0 Z " fill="#F1DF8F" transform="translate(112,64)"/>
<path d="M0 0 C1.32 0.66 2.64 1.32 4 2 C3.67 2.66 3.34 3.32 3 4 C4.32 4.33 5.64 4.66 7 5 C6 6 5 7 4 8 C1.525 7.01 1.525 7.01 -1 6 C-1.042721 4.33388095 -1.04063832 2.66617115 -1 1 C-0.67 0.67 -0.34 0.34 0 0 Z " fill="#6E6B13" transform="translate(9,59)"/>
<path d="M0 0 C2.64 0 5.28 0 8 0 C8 1.32 8 2.64 8 4 C5.36 4 2.72 4 0 4 C0 2.68 0 1.36 0 0 Z " fill="#A09E10" transform="translate(84,52)"/>
<path d="M0 0 C1.32 0 2.64 0 4 0 C4 2.64 4 5.28 4 8 C2.68 8 1.36 8 0 8 C0 5.36 0 2.72 0 0 Z " fill="#9D9B16" transform="translate(48,40)"/>
<path d="M0 0 C1.32 0 2.64 0 4 0 C4 2.64 4 5.28 4 8 C2.68 8 1.36 8 0 8 C0 5.36 0 2.72 0 0 Z " fill="#7A7713" transform="translate(92,44)"/>
<path d="M0 0 C0.33 0.66 0.66 1.32 1 2 C0.34 2 -0.32 2 -1 2 C-0.938125 3.175625 -0.938125 3.175625 -0.875 4.375 C-1 7 -1 7 -3 9 C-3.99 9 -4.98 9 -6 9 C-6.125 6.625 -6.125 6.625 -6 4 C-4.04783565 2.04783565 -2.46800047 1.15173355 0 0 Z " fill="#05020E" transform="translate(46,40)"/>
<path d="M0 0 C1.32 0 2.64 0 4 0 C4 2.64 4 5.28 4 8 C2.68 8 1.36 8 0 8 C0 5.36 0 2.72 0 0 Z " fill="#B3B109" transform="translate(76,40)"/>
<path d="M0 0 C2.64 0 5.28 0 8 0 C8 1.32 8 2.64 8 4 C5.36 4 2.72 4 0 4 C0 2.68 0 1.36 0 0 Z " fill="#9D9A14" transform="translate(80,36)"/>
<path d="M0 0 C1.32 0.33 2.64 0.66 4 1 C4 2.32 4 3.64 4 5 C1.69 5 -0.62 5 -3 5 C-3 6.32 -3 7.64 -3 9 C-4.65 9 -6.3 9 -8 9 C-6.68 8.67 -5.36 8.34 -4 8 C-4 6.68 -4 5.36 -4 4 C-2.68 4 -1.36 4 0 4 C0 2.68 0 1.36 0 0 Z " fill="#312F03" transform="translate(88,88)"/>
<path d="M0 0 C0.33 0.66 0.66 1.32 1 2 C0.67 2.66 0.34 3.32 0 4 C-0.99 4 -1.98 4 -3 4 C-3 4.66 -3 5.32 -3 6 C-3.99 5.67 -4.98 5.34 -6 5 C-6 4.34 -6 3.68 -6 3 C-6.66 2.67 -7.32 2.34 -8 2 C-4.77208445 -0.1519437 -3.71599191 -0.20086443 0 0 Z " fill="#E0DE07" transform="translate(66,80)"/>
<path d="M0 0 C0.66 0.33 1.32 0.66 2 1 C2.875 3.8125 2.875 3.8125 3 7 C1.0625 9.375 1.0625 9.375 -1 11 C-1.02688151 9.35425434 -1.04634123 7.70838587 -1.0625 6.0625 C-1.07410156 5.14597656 -1.08570312 4.22945312 -1.09765625 3.28515625 C-1 1 -1 1 0 0 Z " fill="#E8D159" transform="translate(129,21)"/>
<path d="M0 0 C2.76276177 0.52268466 5.3260876 1.10869587 8 2 C8 3.32 8 4.64 8 6 C5.61435923 5.42415568 3.33317216 4.77772405 1 4 C-0.66362417 3.65179959 -2.32995171 3.31595508 -4 3 C-2.68 2.67 -1.36 2.34 0 2 C0 1.34 0 0.68 0 0 Z " fill="#3B3904" transform="translate(80,98)"/>
<path d="M0 0 C0.99 0 1.98 0 3 0 C3 2.64 3 5.28 3 8 C1.68 8 0.36 8 -1 8 C-1.125 2.25 -1.125 2.25 0 0 Z " fill="#7B7A22" transform="translate(9,84)"/>
<path d="M0 0 C1.65 0.33 3.3 0.66 5 1 C4.67 1.99 4.34 2.98 4 4 C4.66 4 5.32 4 6 4 C6 4.66 6 5.32 6 6 C5.38125 6.12375 4.7625 6.2475 4.125 6.375 C1.80879168 6.87197356 1.80879168 6.87197356 0 9 C0.50603992 6.83125748 0.99983813 5.00032373 2 3 C1.01 3.33 0.02 3.66 -1 4 C-0.67 2.68 -0.34 1.36 0 0 Z " fill="#C2C106" transform="translate(37,68)"/>
<path d="M0 0 C1.65 0 3.3 0 5 0 C5.33 0.66 5.66 1.32 6 2 C5.34 2 4.68 2 4 2 C4.33 2.99 4.66 3.98 5 5 C4.01 5.495 4.01 5.495 3 6 C2.34 5.67 1.68 5.34 1 5 C0.67 5.99 0.34 6.98 0 8 C-0.98120464 4.94736336 -0.98120464 3.05263664 0 0 Z " fill="#F2DE63" transform="translate(145,48)"/>
<path d="M0 0 C0.99 0 1.98 0 3 0 C3.33 2.64 3.66 5.28 4 8 C2.35 7.67 0.7 7.34 -1 7 C-1.04254356 5.00045254 -1.04080783 2.99958364 -1 1 C-0.67 0.67 -0.34 0.34 0 0 Z " fill="#EED32B" transform="translate(133,48)"/>
<path d="M0 0 C1.65 0 3.3 0 5 0 C4.1875 3.4375 4.1875 3.4375 3 7 C2.01 7.33 1.02 7.66 0 8 C0 5.36 0 2.72 0 0 Z " fill="#F9DB44" transform="translate(136,50)"/>
<path d="M0 0 C0.66 0 1.32 0 2 0 C3.31626692 3.61973402 4 6.09567131 4 10 C2.35 10 0.7 10 -1 10 C-0.814375 9.38125 -0.62875 8.7625 -0.4375 8.125 C0.23686176 5.95839822 0.23686176 5.95839822 -1 4 C-0.5625 1.875 -0.5625 1.875 0 0 Z " fill="#F7F220" transform="translate(97,38)"/>
<path d="M0 0 C0.99 0.33 1.98 0.66 3 1 C5.63804589 0.60602665 5.63804589 0.60602665 8 0 C8 0.99 8 1.98 8 3 C8.66 3.33 9.32 3.66 10 4 C5.545 4.495 5.545 4.495 1 5 C0.67 3.35 0.34 1.7 0 0 Z " fill="#9A9909" transform="translate(12,64)"/>
<path d="M0 0 C2.475 0.495 2.475 0.495 5 1 C5 3.31 5 5.62 5 8 C4.01 8.33 3.02 8.66 2 9 C1.34 6.03 0.68 3.06 0 0 Z " fill="#F6EB49" transform="translate(99,39)"/>
<path d="M0 0 C0.33 0.99 0.66 1.98 1 3 C2.94603274 3.59070014 2.94603274 3.59070014 5 4 C5.66 4.66 6.32 5.32 7 6 C6.34 6.66 5.68 7.32 5 8 C3 7.9375 3 7.9375 1 7 C-0.3125 4.5625 -0.3125 4.5625 -1 2 C-0.67 1.34 -0.34 0.68 0 0 Z " fill="#BBB903" transform="translate(56,84)"/>
<path d="M0 0 C1.98 0 3.96 0 6 0 C6 0.33 6 0.66 6 1 C7.65 1.33 9.3 1.66 11 2 C7.3558226 4.4294516 5.28758728 4.16179575 1 4 C0.67 2.68 0.34 1.36 0 0 Z " fill="#ECD45D" transform="translate(128,76)"/>
<path d="M0 0 C1.32 0.66 2.64 1.32 4 2 C3.34 3.32 2.68 4.64 2 6 C0.35 6 -1.3 6 -3 6 C-3.33 4.68 -3.66 3.36 -4 2 C-2.68 2 -1.36 2 0 2 C0 1.34 0 0.68 0 0 Z " fill="#F2DE50" transform="translate(115,50)"/>
<path d="M0 0 C0.2475 0.639375 0.495 1.27875 0.75 1.9375 C1.81562433 4.18741541 1.81562433 4.18741541 4.125 4.75 C4.74375 4.8325 5.3625 4.915 6 5 C5.67 5.99 5.34 6.98 5 8 C3.02 8 1.04 8 -1 8 C-1 7.01 -1 6.02 -1 5 C-1.33 4.01 -1.66 3.02 -2 2 C-1.34 1.34 -0.68 0.68 0 0 Z " fill="#E7E308" transform="translate(101,56)"/>
<path d="M0 0 C2.64 0 5.28 0 8 0 C7.34 1.32 6.68 2.64 6 4 C4.02 4 2.04 4 0 4 C0 2.68 0 1.36 0 0 Z " fill="#8E8D02" transform="translate(80,108)"/>
<path d="M0 0 C0 1.32 0 2.64 0 4 C-2.97 4 -5.94 4 -9 4 C-9 3.01 -9 2.02 -9 1 C-5.92677456 0.08941469 -3.19902639 -0.08886184 0 0 Z " fill="#68650A" transform="translate(76,100)"/>
<path d="M0 0 C0.66 0.99 1.32 1.98 2 3 C2.99 3.66 3.98 4.32 5 5 C2.525 6.485 2.525 6.485 0 8 C-0.99 7.34 -1.98 6.68 -3 6 C-2 4 -1 2 0 0 Z " fill="#05020C" transform="translate(34,89)"/>
<path d="M0 0 C0.33 0 0.66 0 1 0 C1.12375 0.78375 1.2475 1.5675 1.375 2.375 C1.79117993 5.14057822 1.79117993 5.14057822 4 7 C4 8.32 4 9.64 4 11 C2.68 11 1.36 11 0 11 C0 7.37 0 3.74 0 0 Z " fill="#262401" transform="translate(20,77)"/>
<path d="M0 0 C0.99 0.33 1.98 0.66 3 1 C3.33 2.98 3.66 4.96 4 7 C2.02 7 0.04 7 -2 7 C-1.67 6.34 -1.34 5.68 -1 5 C-1.66 4.34 -2.32 3.68 -3 3 C-2.01 2.01 -1.02 1.02 0 0 Z " fill="#E7E407" transform="translate(35,57)"/>
<path d="M0 0 C1.32 0 2.64 0 4 0 C4 1.98 4 3.96 4 6 C2.35 6 0.7 6 -1 6 C-0.67 4.02 -0.34 2.04 0 0 Z " fill="#F7E84A" transform="translate(137,44)"/>
<path d="M0 0 C1.32 0 2.64 0 4 0 C4 2.31 4 4.62 4 7 C2.68 7 1.36 7 0 7 C0 4.69 0 2.38 0 0 Z " fill="#F7E87A" transform="translate(96,32)"/>
<path d="M0 0 C4.95 0.99 4.95 0.99 10 2 C10.33 2.99 10.66 3.98 11 5 C9.35 5 7.7 5 6 5 C6 4.34 6 3.68 6 3 C4.35 3 2.7 3 1 3 C0.67 2.01 0.34 1.02 0 0 Z " fill="#F6F31C" transform="translate(82,31)"/>
<path d="M0 0 C-0.33 2.31 -0.66 4.62 -1 7 C-1.99 7 -2.98 7 -4 7 C-4.33 5.02 -4.66 3.04 -5 1 C-3 0 -3 0 0 0 Z " fill="#E9D57A" transform="translate(141,25)"/>
<path d="M0 0 C0 2.31 0 4.62 0 7 C-0.99 6.34 -1.98 5.68 -3 5 C-3 4.34 -3 3.68 -3 3 C-4.32 3.33 -5.64 3.66 -7 4 C-6.67 3.01 -6.34 2.02 -6 1 C-3 0 -3 0 0 0 Z " fill="#2B2901" transform="translate(45,108)"/>
<path d="M0 0 C2.91517292 1.07401108 4.77810176 1.77810176 7 4 C5 6 5 6 2.375 6.125 C1.59125 6.08375 0.8075 6.0425 0 6 C0 4.02 0 2.04 0 0 Z " fill="#1A1901" transform="translate(34,99)"/>
<path d="M0 0 C1.98 0 3.96 0 6 0 C6 1.32 6 2.64 6 4 C3.36 4 0.72 4 -2 4 C-1.34 2.68 -0.68 1.36 0 0 Z " fill="#6D6A0E" transform="translate(18,68)"/>
<path d="M0 0 C0.33 0 0.66 0 1 0 C0.6875 3.375 0.6875 3.375 0 7 C-0.99 7.66 -1.98 8.32 -3 9 C-4.125 4.25 -4.125 4.25 -3 2 C-2.34 2 -1.68 2 -1 2 C-0.67 1.34 -0.34 0.68 0 0 Z " fill="#F4F21A" transform="translate(95,62)"/>
<path d="M0 0 C1.65 0.99 3.3 1.98 5 3 C4.67 4.32 4.34 5.64 4 7 C3.01 6.67 2.02 6.34 1 6 C1 5.34 1 4.68 1 4 C-1.97 4 -4.94 4 -8 4 C-8 3.67 -8 3.34 -8 3 C-5.36 3 -2.72 3 0 3 C0 2.01 0 1.02 0 0 Z " fill="#EFEC0C" transform="translate(96,53)"/>
<path d="M0 0 C0.33 0.99 0.66 1.98 1 3 C0.01 4.485 0.01 4.485 -1 6 C-1.66 6 -2.32 6 -3 6 C-3 7.32 -3 8.64 -3 10 C-3.99 10 -4.98 10 -6 10 C-4.79157144 5.56909529 -3.48331435 3.01887244 0 0 Z " fill="#E5CC56" transform="translate(155,42)"/>
<path d="M0 0 C3.3 0 6.6 0 10 0 C9.67 1.32 9.34 2.64 9 4 C7.68 4 6.36 4 5 4 C4.67 3.34 4.34 2.68 4 2 C2.68 1.34 1.36 0.68 0 0 Z " fill="#403D0A" transform="translate(82,40)"/>
<path d="M0 0 C0 0.66 0 1.32 0 2 C-0.99 2 -1.98 2 -3 2 C-4.68798827 3.43750191 -4.68798827 3.43750191 -6 5 C-6.99 4.67 -7.98 4.34 -9 4 C-8.34 3.67 -7.68 3.34 -7 3 C-7 2.01 -7 1.02 -7 0 C-3.86650268 -1.04449911 -3.01031744 -0.93423645 0 0 Z " fill="#F2DF73" transform="translate(172,34)"/>
<path d="M0 0 C0 1.32 0 2.64 0 4 C-2.31 4 -4.62 4 -7 4 C-7 3.01 -7 2.02 -7 1 C-4.53721199 -0.231394 -2.7204945 -0.07159196 0 0 Z " fill="#E6E20E" transform="translate(39,28)"/>
<path d="M0 0 C2.97 0 5.94 0 9 0 C7.515 1.485 7.515 1.485 6 3 C6 3.33 6 3.66 6 4 C4.02 4 2.04 4 0 4 C0 2.68 0 1.36 0 0 Z " fill="#D7D50E" transform="translate(41,68)"/>
<path d="M0 0 C2.31 0.66 4.62 1.32 7 2 C6.01 2.495 6.01 2.495 5 3 C5 3.66 5 4.32 5 5 C2.5625 4.625 2.5625 4.625 0 4 C-0.33 3.34 -0.66 2.68 -1 2 C-0.67 1.34 -0.34 0.68 0 0 Z " fill="#E8CF28" transform="translate(102,56)"/>
<path d="M0 0 C4.875 1.75 4.875 1.75 6 4 C4.35 4.33 2.7 4.66 1 5 C0.67 5.99 0.34 6.98 0 8 C-0.99 7.34 -1.98 6.68 -3 6 C-2.34 5.34 -1.68 4.68 -1 4 C-0.3574765 1.93125966 -0.3574765 1.93125966 0 0 Z " fill="#E7D166" transform="translate(104,48)"/>
<path d="M0 0 C0.66 0 1.32 0 2 0 C2 0.66 2 1.32 2 2 C2.66 2 3.32 2 4 2 C4 3.65 4 5.3 4 7 C3.34 7 2.68 7 2 7 C1.67 7.99 1.34 8.98 1 10 C1 8.35 1 6.7 1 5 C0.34 5.66 -0.32 6.32 -1 7 C-0.67 4.69 -0.34 2.38 0 0 Z " fill="#EAE805" transform="translate(53,35)"/>
<path d="M0 0 C1.32 0 2.64 0 4 0 C4 2.64 4 5.28 4 8 C3.01 7.67 2.02 7.34 1 7 C1.33 6.01 1.66 5.02 2 4 C1.34 3.67 0.68 3.34 0 3 C0 2.01 0 1.02 0 0 Z " fill="#EAD886" transform="translate(132,16)"/>
<path d="M0 0 C0.99 0 1.98 0 3 0 C3.125 7.75 3.125 7.75 2 10 C1.34 10 0.68 10 0 10 C0 6.7 0 3.4 0 0 Z " fill="#F4EE2F" transform="translate(108,68)"/>
<path d="M0 0 C2.475 0.495 2.475 0.495 5 1 C5.12375 1.639375 5.2475 2.27875 5.375 2.9375 C5.684375 3.9584375 5.684375 3.9584375 6 5 C6.66 5.33 7.32 5.66 8 6 C7.67 6.66 7.34 7.32 7 8 C6.01 7.67 5.02 7.34 4 7 C3.67 6.01 3.34 5.02 3 4 C2.01 3.67 1.02 3.34 0 3 C0 2.01 0 1.02 0 0 Z " fill="#AEAC0A" transform="translate(24,69)"/>
<path d="M0 0 C0.99 0.33 1.98 0.66 3 1 C2.67 3.31 2.34 5.62 2 8 C0.68 8.33 -0.64 8.66 -2 9 C-1.125 2.25 -1.125 2.25 0 0 Z " fill="#F7E34C" transform="translate(142,51)"/>
<path d="M0 0 C2.64 0 5.28 0 8 0 C8 0.66 8 1.32 8 2 C5.33333333 2.66666667 2.66666667 3.33333333 0 4 C0 2.68 0 1.36 0 0 Z " fill="#767247" transform="translate(52,124)"/>
<path d="M0 0 C1.32 0.33 2.64 0.66 4 1 C3.01 1 2.02 1 1 1 C1.33 3.97 1.66 6.94 2 10 C1.34 10 0.68 10 0 10 C0 10.66 0 11.32 0 12 C-0.66 12 -1.32 12 -2 12 C-2 10.68 -2 9.36 -2 8 C-1.34 8 -0.68 8 0 8 C0 5.36 0 2.72 0 0 Z " fill="#3B3719" transform="translate(100,68)"/>
<path d="M0 0 C1.32 0 2.64 0 4 0 C4 1.32 4 2.64 4 4 C4.99 4.33 5.98 4.66 7 5 C6.01 6.485 6.01 6.485 5 8 C4.34 6.35 3.68 4.7 3 3 C2.01 3.33 1.02 3.66 0 4 C0 2.68 0 1.36 0 0 Z " fill="#222102" transform="translate(20,72)"/>
<path d="M0 0 C0.33 0 0.66 0 1 0 C1.33 2.97 1.66 5.94 2 9 C1.01 9.495 1.01 9.495 0 10 C-0.99 9.67 -1.98 9.34 -3 9 C-3 8.34 -3 7.68 -3 7 C-2.01 7 -1.02 7 0 7 C-0.66 5.68 -1.32 4.36 -2 3 C-1.34 2.01 -0.68 1.02 0 0 Z " fill="#908E03" transform="translate(15,54)"/>
<path d="M0 0 C0.33 0.66 0.66 1.32 1 2 C0.67 2.66 0.34 3.32 0 4 C1.32 4 2.64 4 4 4 C4 3.01 4 2.02 4 1 C4.99 1 5.98 1 7 1 C7 1.99 7 2.98 7 4 C4.29120665 5.35439668 1.99066732 5.06501451 -1 5 C-1.33 4.34 -1.66 3.68 -2 3 C-1.34 2.01 -0.68 1.02 0 0 Z " fill="#232201" transform="translate(73,103)"/>
<path d="M0 0 C1.32 0 2.64 0 4 0 C4 1.32 4 2.64 4 4 C2.68 4 1.36 4 0 4 C-0.33 5.32 -0.66 6.64 -1 8 C-0.67 5.36 -0.34 2.72 0 0 Z " fill="#5B580D" transform="translate(96,88)"/>
<path d="M0 0 C0.33 1.32 0.66 2.64 1 4 C-0.65 4.66 -2.3 5.32 -4 6 C-4.66666667 4.66666667 -5.33333333 3.33333333 -6 2 C-4.02 1.34 -2.04 0.68 0 0 Z " fill="#F6F21D" transform="translate(54,50)"/>
<path d="M0 0 C1.32 0 2.64 0 4 0 C4 0.99 4 1.98 4 3 C5.32 3.33 6.64 3.66 8 4 C5.36 4 2.72 4 0 4 C0 2.68 0 1.36 0 0 Z " fill="#646110" transform="translate(24,104)"/>
<path d="M0 0 C0.66 0 1.32 0 2 0 C2 1.98 2 3.96 2 6 C0.68 6 -0.64 6 -2 6 C-2 4.68 -2 3.36 -2 2 C-1.34 2 -0.68 2 0 2 C0 1.34 0 0.68 0 0 Z " fill="#EAD56B" transform="translate(106,94)"/>
<path d="M0 0 C0.99 0.33 1.98 0.66 3 1 C3 2.32 3 3.64 3 5 C1.35 5 -0.3 5 -2 5 C-1.34 3.35 -0.68 1.7 0 0 Z " fill="#F6E670" transform="translate(109,87)"/>
<path d="M0 0 C0 1.32 0 2.64 0 4 C-2.31 3.67 -4.62 3.34 -7 3 C-4.49955934 -0.00052879 -4.2621484 0 0 0 Z " fill="#ECD778" transform="translate(148,76)"/>
<path d="M0 0 C1.32 0 2.64 0 4 0 C4 0.99 4 1.98 4 3 C5.32 3.33 6.64 3.66 8 4 C5.36 4 2.72 4 0 4 C0 2.68 0 1.36 0 0 Z " fill="#979314" transform="translate(32,52)"/>
<path d="M0 0 C0.66 0 1.32 0 2 0 C2 0.99 2 1.98 2 3 C2.99 2.67 3.98 2.34 5 2 C5.99 2.99 6.98 3.98 8 5 C7.67 5.66 7.34 6.32 7 7 C4.69 6.01 2.38 5.02 0 4 C0 2.68 0 1.36 0 0 Z " fill="#F6F220" transform="translate(57,49)"/>
<path d="M0 0 C-0.33 1.32 -0.66 2.64 -1 4 C-2.98 4 -4.96 4 -7 4 C-7 3.01 -7 2.02 -7 1 C-4.50935112 0.31292445 -2.62113708 0 0 0 Z " fill="#ECD42A" transform="translate(145,36)"/>
<path d="M0 0 C3.96 0 7.92 0 12 0 C12 0.33 12 0.66 12 1 C9.36 1 6.72 1 4 1 C4 1.66 4 2.32 4 3 C2.68 3 1.36 3 0 3 C0 2.01 0 1.02 0 0 Z " fill="#8B8907" transform="translate(36,36)"/>
<path d="M0 0 C1.2065625 0.0309375 1.2065625 0.0309375 2.4375 0.0625 C2.4375 1.39583333 2.4375 2.72916667 2.4375 4.0625 C0.7875 4.0625 -0.8625 4.0625 -2.5625 4.0625 C-2.8925 3.0725 -3.2225 2.0825 -3.5625 1.0625 C-2.5625 0.0625 -2.5625 0.0625 0 0 Z " fill="#545304" transform="translate(73.5625,111.9375)"/>
<path d="M0 0 C1.32 0 2.64 0 4 0 C4 1.32 4 2.64 4 4 C3.01 4 2.02 4 1 4 C0.67 4.99 0.34 5.98 0 7 C0 4.69 0 2.38 0 0 Z " fill="#89844B" transform="translate(96,72)"/>
<path d="M0 0 C1.32 0 2.64 0 4 0 C4 2.64 4 5.28 4 8 C3.34 6.68 2.68 5.36 2 4 C1.34 4 0.68 4 0 4 C0 2.68 0 1.36 0 0 Z " fill="#484605" transform="translate(16,72)"/>
<path d="M0 0 C2 2 2 2 2.125 4.625 C2.08375 5.40875 2.0425 6.1925 2 7 C0.68 7 -0.64 7 -2 7 C-1.34 4.69 -0.68 2.38 0 0 Z " fill="#EFD972" transform="translate(158,57)"/>
<path d="M0 0 C1.98 0 3.96 0 6 0 C5.34 1.32 4.68 2.64 4 4 C2.68 4 1.36 4 0 4 C0 2.68 0 1.36 0 0 Z " fill="#E0DE0C" transform="translate(88,36)"/>
<path d="M0 0 C1.65 0 3.3 0 5 0 C5.33 1.65 5.66 3.3 6 5 C4.68 4.67 3.36 4.34 2 4 C2 3.01 2 2.02 2 1 C1.34 0.67 0.68 0.34 0 0 Z " fill="#C6C505" transform="translate(47,72)"/>
<path d="M0 0 C0.33 0.99 0.66 1.98 1 3 C1.99 3 2.98 3 4 3 C3.67 4.32 3.34 5.64 3 7 C2.01 7 1.02 7 0 7 C0 4.69 0 2.38 0 0 Z " fill="#9C9705" transform="translate(16,41)"/>
<path d="M0 0 C0 1.32 0 2.64 0 4 C-4.75 3.25 -4.75 3.25 -7 1 C-4 0 -4 0 0 0 Z " fill="#DEC953" transform="translate(136,40)"/>
<path d="M0 0 C1.32 0 2.64 0 4 0 C4 0.99 4 1.98 4 3 C4.66 3.33 5.32 3.66 6 4 C4.02 4 2.04 4 0 4 C0 2.68 0 1.36 0 0 Z " fill="#DFCE33" transform="translate(24,32)"/>
<path d="M0 0 C1.98 0 3.96 0 6 0 C5.01 0.495 5.01 0.495 4 1 C4 1.99 4 2.98 4 4 C2.68 4 1.36 4 0 4 C0 2.68 0 1.36 0 0 Z " fill="#F0DB54" transform="translate(28,28)"/>
<path d="M0 0 C0.66 0 1.32 0 2 0 C2 1.65 2 3.3 2 5 C0.68 5.33 -0.64 5.66 -2 6 C-2 4.68 -2 3.36 -2 2 C-1.34 2 -0.68 2 0 2 C0 1.34 0 0.68 0 0 Z " fill="#F6E586" transform="translate(126,25)"/>
<path d="M0 0 C1.32 0 2.64 0 4 0 C4 1.32 4 2.64 4 4 C2.35 4 0.7 4 -1 4 C-0.67 2.68 -0.34 1.36 0 0 Z " fill="#A29B5B" transform="translate(76,120)"/>
<path d="M0 0 C2.475 0.495 2.475 0.495 5 1 C4.67 1.99 4.34 2.98 4 4 C2.68 4 1.36 4 0 4 C0 2.68 0 1.36 0 0 Z " fill="#BDB772" transform="translate(36,120)"/>
<path d="M0 0 C1.32 0 2.64 0 4 0 C4.33 0.99 4.66 1.98 5 3 C3.35 3.33 1.7 3.66 0 4 C0 2.68 0 1.36 0 0 Z " fill="#A7A614" transform="translate(88,100)"/>
<path d="M0 0 C1.32 0 2.64 0 4 0 C4.33 1.65 4.66 3.3 5 5 C2.525 4.01 2.525 4.01 0 3 C0 2.01 0 1.02 0 0 Z " fill="#696613" transform="translate(12,92)"/>
<path d="M0 0 C2.475 0.495 2.475 0.495 5 1 C4.67 1.99 4.34 2.98 4 4 C2.68 4 1.36 4 0 4 C0 2.68 0 1.36 0 0 Z " fill="#A29F1C" transform="translate(28,76)"/>
<path d="M0 0 C1.65 0 3.3 0 5 0 C5 0.99 5 1.98 5 3 C3.35 3.33 1.7 3.66 0 4 C0 2.68 0 1.36 0 0 Z " fill="#E4BC1F" transform="translate(120,64)"/>
<path d="M0 0 C0.33 0.99 0.66 1.98 1 3 C3.01508358 3.73323796 3.01508358 3.73323796 5 4 C4.01 4.33 3.02 4.66 2 5 C1.67 5.99 1.34 6.98 1 8 C0.01 7.34 -0.98 6.68 -2 6 C-1.34 4.02 -0.68 2.04 0 0 Z " fill="#E7D328" transform="translate(119,49)"/>
<path d="M0 0 C1.32 0 2.64 0 4 0 C4 1.65 4 3.3 4 5 C2.68 4.67 1.36 4.34 0 4 C0 2.68 0 1.36 0 0 Z " fill="#BAB133" transform="translate(20,36)"/>
<path d="M0 0 C1.32 0 2.64 0 4 0 C4 1.32 4 2.64 4 4 C2.35 3.67 0.7 3.34 -1 3 C-0.67 2.01 -0.34 1.02 0 0 Z " fill="#F9E96F" transform="translate(88,28)"/>
<path d="M0 0 C0.99 0.33 1.98 0.66 3 1 C3 2.65 3 4.3 3 6 C2.01 6.33 1.02 6.66 0 7 C0 4.69 0 2.38 0 0 Z " fill="#E9D326" transform="translate(148,25)"/>
<path d="M0 0 C1.98 0.495 1.98 0.495 4 1 C4 1.99 4 2.98 4 4 C2.35 3.67 0.7 3.34 -1 3 C-0.67 2.01 -0.34 1.02 0 0 Z " fill="#F6E383" transform="translate(145,20)"/>
<path d="M0 0 C1.32 0 2.64 0 4 0 C4.33 0.99 4.66 1.98 5 3 C3.35 3.33 1.7 3.66 0 4 C0 2.68 0 1.36 0 0 Z " fill="#DACB74" transform="translate(128,16)"/>
</svg>
